<svg width="241" height="162" viewBox="0 0 241 162" fill="none" xmlns="http://www.w3.org/2000/svg">
<g clip-path="url(#clip0_121_271)">
<path d="M119.503 60.9585C136.346 60.9585 150.001 47.3125 150.001 30.4792C150.001 13.646 136.346 0 119.503 0C102.659 0 89.005 13.646 89.005 30.4792C89.005 47.3125 102.659 60.9585 119.503 60.9585Z" fill="white"/>
<path d="M119.498 123C136.341 123 149.996 109.354 149.996 92.5208C149.996 75.6875 136.341 62.0415 119.498 62.0415C102.654 62.0415 89 75.6875 89 92.5208C89 109.354 102.654 123 119.498 123Z" fill="white"/>
<path d="M149.996 30.4792H89V92.5249H149.996V30.4792Z" fill="white"/>
<path d="M119.498 115.789C132.356 115.789 142.781 105.371 142.781 92.5208V30.4793C142.781 17.6286 132.356 7.21057 119.498 7.21057" fill="white"/>
<path d="M119.498 7.21057C106.639 7.21057 96.215 17.6286 96.215 30.4793V92.5208C96.215 105.371 106.639 115.789 119.498 115.789" fill="white"/>
<path d="M122.086 30.4792H116.914V92.5208H122.086V30.4792Z" fill="#F04E45"/>
<path d="M119.498 95.1034C120.925 95.1034 122.082 93.9471 122.082 92.5207C122.082 91.0944 120.925 89.9381 119.498 89.9381C118.071 89.9381 116.914 91.0944 116.914 92.5207C116.914 93.9471 118.071 95.1034 119.498 95.1034Z" fill="#F04E45"/>
<path d="M119.498 33.0619C120.925 33.0619 122.082 31.9056 122.082 30.4792C122.082 29.0529 120.925 27.8966 119.498 27.8966C118.071 27.8966 116.914 29.0529 116.914 30.4792C116.914 31.9056 118.071 33.0619 119.498 33.0619Z" fill="#F04E45"/>
<path d="M137.604 51.0195H132.431V71.9847H137.604V51.0195Z" fill="#F04E45"/>
<path d="M135.016 74.5674C136.443 74.5674 137.6 73.4111 137.6 71.9847C137.6 70.5584 136.443 69.4021 135.016 69.4021C133.588 69.4021 132.431 70.5584 132.431 71.9847C132.431 73.4111 133.588 74.5674 135.016 74.5674Z" fill="#F04E45"/>
<path d="M135.016 53.6022C136.443 53.6022 137.6 52.4459 137.6 51.0195C137.6 49.5932 136.443 48.4369 135.016 48.4369C133.588 48.4369 132.431 49.5932 132.431 51.0195C132.431 52.4459 133.588 53.6022 135.016 53.6022Z" fill="#F04E45"/>
<path d="M129.843 40.8223H124.671V82.1819H129.843V40.8223Z" fill="#F04E45"/>
<path d="M127.259 84.7645C128.686 84.7645 129.843 83.6082 129.843 82.1819C129.843 80.7555 128.686 79.5992 127.259 79.5992C125.832 79.5992 124.675 80.7555 124.675 82.1819C124.675 83.6082 125.832 84.7645 127.259 84.7645Z" fill="#F04E45"/>
<path d="M127.26 43.4007C128.687 43.4007 129.844 42.2445 129.844 40.8181C129.844 39.3918 128.687 38.2355 127.26 38.2355C125.832 38.2355 124.675 39.3918 124.675 40.8181C124.675 42.2445 125.832 43.4007 127.26 43.4007Z" fill="#F04E45"/>
<path d="M114.325 40.8223H109.153V82.1819H114.325V40.8223Z" fill="#F04E45"/>
<path d="M111.741 84.7645C113.168 84.7645 114.325 83.6082 114.325 82.1819C114.325 80.7555 113.168 79.5992 111.741 79.5992C110.314 79.5992 109.157 80.7555 109.157 82.1819C109.157 83.6082 110.314 84.7645 111.741 84.7645Z" fill="#F04E45"/>
<path d="M111.742 43.4007C113.169 43.4007 114.326 42.2445 114.326 40.8181C114.326 39.3918 113.169 38.2355 111.742 38.2355C110.315 38.2355 109.158 39.3918 109.158 40.8181C109.158 42.2445 110.315 43.4007 111.742 43.4007Z" fill="#F04E45"/>
<path d="M119.498 66.6694C120.925 66.6694 122.082 65.5131 122.082 64.0868C122.082 62.6604 120.925 61.5042 119.498 61.5042C118.071 61.5042 116.914 62.6604 116.914 64.0868C116.914 65.5131 118.071 66.6694 119.498 66.6694Z" fill="#BBD86B"/>
<path d="M119.499 61.4958C120.926 61.4958 122.083 60.3395 122.083 58.9132C122.083 57.4868 120.926 56.3306 119.499 56.3306C118.072 56.3306 116.915 57.4868 116.915 58.9132C116.915 60.3395 118.072 61.4958 119.499 61.4958Z" fill="#BBD86B"/>
<path d="M122.082 58.9132H116.91V64.0826H122.082V58.9132Z" fill="#BBD86B"/>
<path d="M127.259 79.7367C128.686 79.7367 129.843 78.5804 129.843 77.154C129.843 75.7277 128.686 74.5714 127.259 74.5714C125.832 74.5714 124.675 75.7277 124.675 77.154C124.675 78.5804 125.832 79.7367 127.259 79.7367Z" fill="#B23831"/>
<path d="M127.26 74.5631C128.687 74.5631 129.844 73.4068 129.844 71.9805C129.844 70.5541 128.687 69.3978 127.26 69.3978C125.832 69.3978 124.675 70.5541 124.675 71.9805C124.675 73.4068 125.832 74.5631 127.26 74.5631Z" fill="#B23831"/>
<path d="M129.843 71.9805H124.671V77.1499H129.843V71.9805Z" fill="#B23831"/>
<path d="M135.016 64.0826C136.443 64.0826 137.6 62.9263 137.6 61.5C137.6 60.0736 136.443 58.9174 135.016 58.9174C133.588 58.9174 132.431 60.0736 132.431 61.5C132.431 62.9263 133.588 64.0826 135.016 64.0826Z" fill="#60B6C6"/>
<path d="M135.016 58.9132C136.443 58.9132 137.6 57.7569 137.6 56.3306C137.6 54.9042 136.443 53.7479 135.016 53.7479C133.588 53.7479 132.431 54.9042 132.431 56.3306C132.431 57.7569 133.588 58.9132 135.016 58.9132Z" fill="#60B6C6"/>
<path d="M137.604 56.3306H132.431V61.5H137.604V56.3306Z" fill="#60B6C6"/>
<path d="M106.569 51.0195H101.396V71.9847H106.569V51.0195Z" fill="#F04E45"/>
<path d="M103.98 74.5674C105.407 74.5674 106.564 73.4111 106.564 71.9847C106.564 70.5584 105.407 69.4021 103.98 69.4021C102.553 69.4021 101.396 70.5584 101.396 71.9847C101.396 73.4111 102.553 74.5674 103.98 74.5674Z" fill="#F04E45"/>
<path d="M103.98 53.6022C105.407 53.6022 106.564 52.4459 106.564 51.0195C106.564 49.5932 105.407 48.4369 103.98 48.4369C102.553 48.4369 101.396 49.5932 101.396 51.0195C101.396 52.4459 102.553 53.6022 103.98 53.6022Z" fill="#F04E45"/>
<path d="M103.98 69.3978C105.407 69.3978 106.564 68.2415 106.564 66.8152C106.564 65.3888 105.407 64.2325 103.98 64.2325C102.553 64.2325 101.396 65.3888 101.396 66.8152C101.396 68.2415 102.553 69.3978 103.98 69.3978Z" fill="#FFD65C"/>
<path d="M103.98 64.2284C105.407 64.2284 106.564 63.0721 106.564 61.6457C106.564 60.2194 105.407 59.0631 103.98 59.0631C102.553 59.0631 101.396 60.2194 101.396 61.6457C101.396 63.0721 102.553 64.2284 103.98 64.2284Z" fill="#FFD65C"/>
<path d="M106.569 61.6458H101.396V66.8152H106.569V61.6458Z" fill="#FFD65C"/>
<path d="M111.741 53.7396C113.168 53.7396 114.325 52.5833 114.325 51.157C114.325 49.7306 113.168 48.5743 111.741 48.5743C110.314 48.5743 109.157 49.7306 109.157 51.157C109.157 52.5833 110.314 53.7396 111.741 53.7396Z" fill="#B23831"/>
<path d="M111.742 48.5702C113.169 48.5702 114.326 47.4139 114.326 45.9875C114.326 44.5612 113.169 43.4049 111.742 43.4049C110.315 43.4049 109.158 44.5612 109.158 45.9875C109.158 47.4139 110.315 48.5702 111.742 48.5702Z" fill="#B23831"/>
<path d="M114.325 45.9875H109.153V51.157H114.325V45.9875Z" fill="#B23831"/>
</g>
<path d="M5.54785 155.983C5.04375 156.562 4.36711 156.842 3.50447 156.842H0.903076V160.92H0V151.1H3.34542C4.18111 151.1 4.87122 151.341 5.44272 151.834C6.01422 152.312 6.30536 153.046 6.30536 154.02C6.30266 154.742 6.05196 155.404 5.54785 155.983ZM3.3589 151.977H0.903076V155.954H3.41012C4.67173 155.954 5.34837 155.052 5.34837 153.98C5.34837 152.682 4.52616 151.977 3.3589 151.977Z" fill="white"/>
<path d="M40.0939 154.599V157.407C40.0939 158.507 39.8027 159.381 39.2178 160.032C38.6463 160.679 37.8645 161.006 36.8698 161.006C35.8211 161.006 35.0124 160.668 34.4544 159.991C33.9098 159.301 33.6322 158.438 33.6322 157.41V154.602C33.6322 153.587 33.9098 152.739 34.4679 152.063C35.0394 151.373 35.8346 151.034 36.8698 151.034C39.0048 151.032 40.0939 152.441 40.0939 154.599ZM35.1175 152.711C34.7186 153.232 34.5191 153.868 34.5191 154.63V157.381C34.5191 158.158 34.7186 158.82 35.1041 159.341C35.503 159.863 36.0988 160.132 36.8832 160.132C38.3551 160.132 39.18 159.003 39.18 157.352V154.63C39.18 153.052 38.3713 151.937 36.8832 151.937C36.0988 151.934 35.5138 152.189 35.1175 152.711Z" fill="white"/>
<path d="M68.2968 151.1H71.3107C72.8095 151.1 73.8177 151.708 74.3623 152.905C74.5887 153.413 74.7073 154.387 74.7073 155.84C74.7073 157.393 74.6022 158.45 74.3892 159C73.8716 160.284 72.7691 160.92 71.0977 160.92H68.2968V151.1ZM73.8042 155.08C73.8042 152.865 72.8742 151.977 71.2298 151.977H69.1999V160.046H71.2298C72.9416 160.046 73.8042 159.032 73.8042 157.014V155.08Z" fill="white"/>
<path d="M108.695 160.92H102.961V151.1H103.865V160.043H108.695V160.92Z" fill="white"/>
<path d="M137.548 160.92H136.645V151.1H137.548V160.92Z" fill="white"/>
<path d="M172.121 160.92L168.697 155.39L167.104 152.736C167.091 152.736 167.091 152.751 167.077 152.751V160.917H166.188V151.1H167.077L170.423 156.516L172.094 159.324L172.121 159.295V151.1H172.997V160.917H172.121V160.92Z" fill="white"/>
<path d="M207.317 160.92H201.583V151.1H207.317V151.977H202.486V155.53H206.6V156.375H202.486V160.043H207.317V160.92Z" fill="white"/>
<path d="M240.11 160.255C239.512 160.748 238.73 161.003 237.749 161.003C236.436 161.003 235.307 160.607 234.366 159.805L234.937 159.029C235.732 159.748 236.689 160.1 237.789 160.1C239.156 160.1 240.073 159.464 240.073 158.209C240.073 157.702 239.86 157.292 239.596 157.052C239.477 156.926 239.291 156.825 239.064 156.728C238.628 156.516 238.334 156.447 237.765 156.332L236.902 156.149C236.703 156.092 236.452 155.994 236.145 155.868C235.854 155.742 235.627 155.587 235.468 155.43C235.164 155.092 234.883 154.499 234.883 153.722C234.883 152.891 235.161 152.226 235.719 151.734C236.277 151.241 236.994 151 237.857 151C238.984 151 239.914 151.281 240.671 151.86L240.167 152.665C239.423 152.172 238.655 151.931 237.843 151.931C236.582 151.931 235.773 152.553 235.773 153.722C235.773 154.186 235.999 154.567 236.223 154.794C236.342 154.891 236.541 155.006 236.795 155.103C237.059 155.201 237.285 155.272 237.471 155.315C237.657 155.358 237.935 155.427 238.307 155.499C238.943 155.625 239.261 155.711 239.792 155.991C240.563 156.358 240.946 156.994 241 158.221C241 159.072 240.709 159.748 240.11 160.255Z" fill="white"/>
<defs>
<clipPath id="clip0_121_271">
<rect width="61" height="123" fill="white" transform="translate(89)"/>
</clipPath>
</defs>
</svg>
