<svg width="180" height="205" viewBox="0 0 180 205" fill="none" xmlns="http://www.w3.org/2000/svg">
    <path fill-rule="evenodd" clip-rule="evenodd"
        d="M150.996 33.0514C152.416 29.4462 152.837 25.8476 153.454 22.0805C153.574 21.3448 153.075 20.6528 152.339 20.5316C151.603 20.4103 150.908 20.9105 150.787 21.6461C150.202 25.2182 149.829 28.6421 148.482 32.0667C148.209 32.7593 148.551 33.5434 149.246 33.8131C149.939 34.0872 150.724 33.7441 150.996 33.0514Z"
        fill="#D9D9D9" fill-opacity="0.6" />
    <path fill-rule="evenodd" clip-rule="evenodd"
        d="M157.842 41.3242C164.844 36.4743 171.703 29.9477 176.801 23.1126C177.246 22.5155 177.122 21.67 176.524 21.2275C175.925 20.7849 175.078 20.907 174.634 21.5041C169.703 28.1126 163.07 34.4249 156.3 39.1111C155.688 39.5363 155.537 40.3766 155.962 40.9862C156.388 41.5958 157.23 41.7494 157.842 41.3242Z"
        fill="#D9D9D9" fill-opacity="0.6" />
    <path fill-rule="evenodd" clip-rule="evenodd"
        d="M158.591 47.7472C164.172 49.4508 170.268 48.6374 175.761 47.0682C176.477 46.8608 176.892 46.1147 176.686 45.4032C176.48 44.6872 175.731 44.2743 175.015 44.4772C170.013 45.9083 164.463 46.7225 159.38 45.1717C158.667 44.9538 157.911 45.3553 157.694 46.0644C157.476 46.7735 157.878 47.5294 158.591 47.7472Z"
        fill="#D9D9D9" fill-opacity="0.6" />
    <path fill-rule="evenodd" clip-rule="evenodd"
        d="M25.6895 133.645C22.5828 131.773 20.4609 129.149 19.3435 125.695C19.2115 125.288 18.7722 125.062 18.3627 125.194C17.9539 125.322 17.7285 125.759 17.8605 126.167C19.0982 129.989 21.4451 132.897 24.8848 134.97C25.2526 135.193 25.7327 135.074 25.9543 134.71C26.1769 134.342 26.0581 133.865 25.6895 133.645Z"
        fill="#D9D9D9" fill-opacity="0.6" />
    <path
        d="M25.6895 133.645L25.9458 133.216C26.5527 133.578 26.7482 134.364 26.3819 134.969L26.3815 134.969C26.0171 135.569 25.2302 135.764 24.6261 135.398C21.086 133.264 18.6605 130.26 17.3849 126.321L25.6895 133.645ZM25.6895 133.645C26.0581 133.865 26.1769 134.342 25.9543 134.71L25.9543 134.71L25.6895 133.645ZM25.6895 133.645L25.9476 133.217C22.9413 131.405 20.8985 128.877 19.8192 125.541L19.8191 125.541M25.6895 133.645L19.8191 125.541M19.8191 125.541C19.6024 124.873 18.883 124.502 18.2113 124.717M19.8191 125.541L18.2113 124.717M18.2113 124.717C17.5384 124.93 17.1674 125.65 17.3848 126.321L18.2113 124.717Z"
        stroke="#D9D9D9" stroke-opacity="0.6" />
    <path fill-rule="evenodd" clip-rule="evenodd"
        d="M12.1638 166.078C12.6969 166.842 13.2993 167.561 13.9704 168.214C14.269 168.505 14.9231 169.051 15.5489 169.276C16.215 169.517 16.8518 169.44 17.3127 168.927C17.9243 168.247 18.0498 167.606 17.9358 167.057C17.8267 166.527 17.4651 166.04 16.9113 165.645C15.8527 164.892 14.0381 164.48 12.9512 164.437C12.4728 163.646 12.0702 162.811 11.7451 161.945C9.32427 155.496 12.8654 147.923 20.271 143.342C22.8637 141.739 27.3857 141.839 32.1115 142.523C39.4699 143.586 47.3134 146.184 49.6309 146.871C50.2036 147.04 50.5601 147.077 50.6365 147.065C51.0102 147.014 51.1637 146.788 51.2431 146.624C51.3552 146.384 51.3604 146.171 51.3191 145.986C51.2616 145.737 51.1058 145.503 50.8139 145.335C50.6523 145.244 50.4139 145.168 50.1547 145.106C49.9745 145.064 49.7697 145.048 49.6512 144.978C48.8934 144.526 48.1676 144.031 47.4344 143.541C44.9681 141.9 42.744 140.035 40.558 138.039C33.6119 131.697 26.1726 125.371 21.8606 116.856C21.6671 116.474 21.1985 116.317 20.8142 116.51C20.4308 116.7 20.2765 117.166 20.4696 117.551C24.8663 126.235 32.4227 132.711 39.5062 139.18C41.3659 140.877 43.2532 142.483 45.2862 143.941C41.3097 142.79 35.7647 141.349 30.6724 140.773C26.1437 140.261 21.9659 140.467 19.4455 142.025C11.3329 147.044 7.63311 155.421 10.2859 162.484C10.57 163.239 10.9073 163.977 11.2979 164.684C4.83005 166.288 0.79936 172.335 1.93344 178.93C2.00562 179.353 2.40885 179.637 2.83237 179.567C3.25669 179.494 3.54158 179.095 3.4694 178.671C2.44759 172.729 6.21559 167.302 12.1638 166.078ZM14.168 166.147C14.4481 166.481 14.7456 166.801 15.0591 167.109C15.2279 167.272 15.558 167.565 15.9094 167.746C15.992 167.787 16.128 167.826 16.1912 167.843C16.3487 167.664 16.4411 167.515 16.4096 167.366C16.3715 167.179 16.201 167.044 16.0071 166.906C15.5209 166.558 14.822 166.302 14.168 166.147Z"
        fill="#D9D9D9" fill-opacity="0.6" />
    <path
        d="M17.6845 169.262L17.6847 169.262C18.389 168.478 18.5754 167.68 18.4255 166.956C18.2838 166.268 17.8251 165.682 17.2014 165.238L17.2012 165.238C16.6063 164.815 15.8269 164.504 15.077 164.293C14.4361 164.114 13.7876 163.999 13.2465 163.955C12.842 163.257 12.4972 162.526 12.2132 161.769C9.90555 155.621 13.2513 148.272 20.5341 143.767C21.7244 143.031 23.403 142.662 25.4133 142.574C27.4147 142.486 29.6923 142.678 32.0399 143.017L32.04 143.017C38.3976 143.936 45.1216 146.008 48.3064 146.99C48.7848 147.137 49.1833 147.26 49.4887 147.351L49.4898 147.351C49.7929 147.44 50.0445 147.496 50.2362 147.529C50.3317 147.545 50.4156 147.556 50.4858 147.562C50.5396 147.566 50.6253 147.572 50.7064 147.56C51.3071 147.477 51.5739 147.089 51.6936 146.84L51.6936 146.84L51.6959 146.836C51.8589 146.487 51.8704 146.16 51.807 145.877L51.8063 145.874C51.717 145.487 51.4732 145.137 51.0628 144.902L51.0595 144.9C50.835 144.773 50.5407 144.684 50.2721 144.619L50.2671 144.618C50.2099 144.605 50.1536 144.595 50.1062 144.586C50.0951 144.584 50.0846 144.582 50.0746 144.58C50.0385 144.574 50.0087 144.568 49.9792 144.562C49.9424 144.555 49.9185 144.549 49.9027 144.544C49.9001 144.543 49.898 144.543 49.8964 144.542C49.2512 144.157 48.6295 143.74 47.9934 143.314C47.9001 143.251 47.8064 143.188 47.7123 143.126L47.7114 143.125C45.2747 141.504 43.0717 139.657 40.8952 137.669L40.8952 137.669C40.3103 137.136 39.7229 136.602 39.1347 136.069C32.7103 130.238 26.2104 124.339 22.3067 116.63L22.3066 116.63C21.9897 116.005 21.2231 115.747 20.5912 116.063C19.9575 116.377 19.7069 117.145 20.0226 117.775L20.0235 117.776C24.1263 125.881 30.9466 132.077 37.5204 138.049C38.0723 138.55 38.6224 139.05 39.1691 139.549L39.1691 139.549C40.3838 140.658 41.6136 141.731 42.8904 142.751C39.253 141.768 34.8484 140.742 30.7286 140.276C28.4425 140.018 26.2293 139.938 24.2587 140.125C22.2935 140.311 20.5338 140.764 19.1826 141.6L19.1825 141.6C10.9369 146.701 7.05508 155.304 9.8178 162.659L9.81787 162.66C10.036 163.24 10.2848 163.81 10.5645 164.365C4.20638 166.253 0.297862 172.368 1.44062 179.014C1.55979 179.712 2.2224 180.174 2.91401 180.06L2.91401 180.06L2.91724 180.059C3.61028 179.94 4.08135 179.286 3.96228 178.587L3.96216 178.587C3.00522 173.022 6.4428 167.931 11.9486 166.638C12.4496 167.325 13.0072 167.974 13.6213 168.572C13.9343 168.877 14.6505 169.485 15.3793 169.746C16.1813 170.037 17.0521 169.965 17.6845 169.262Z"
        stroke="#D9D9D9" stroke-opacity="0.6" />
    <path
        d="M76.6684 35.4204C76.319 33.9728 74.2599 33.9728 73.9105 35.4204L73.4578 37.2955C73.333 37.8128 72.9291 38.2167 72.4117 38.3416L70.5367 38.7942C69.0891 39.1437 69.0891 41.2027 70.5367 41.5522L72.4117 42.0048C72.9291 42.1297 73.333 42.5336 73.4578 43.0509L73.9105 44.926C74.2599 46.3736 76.319 46.3736 76.6684 44.926L77.1211 43.0509C77.2459 42.5336 77.6498 42.1297 78.1671 42.0048L80.0422 41.5522C81.4898 41.2027 81.4898 39.1437 80.0422 38.7942L78.1671 38.3416C77.6498 38.2167 77.2459 37.8128 77.1211 37.2955L76.6684 35.4204Z"
        fill="#0BA0D0" />
    <circle cx="137.068" cy="135.036" r="4.05108" fill="#0BA0D0" />
    <path
        d="M59.5118 82.2644C60.5357 74.5957 63.4791 67.312 68.0674 61.0929C72.6558 54.8739 78.7395 49.922 85.7511 46.6993C92.7627 43.4766 100.474 42.0881 108.165 42.6633C115.856 43.2384 123.276 45.7585 129.734 49.9885L147.329 43.9879C147.86 43.8125 148.429 43.7931 148.971 43.9322C149.512 44.0714 150.002 44.3631 150.384 44.7729C150.765 45.1828 151.021 45.6936 151.122 46.245C151.223 46.7964 151.165 47.3653 150.954 47.8844L143.898 64.7692C147.651 71.041 149.851 78.1233 150.315 85.4234C150.78 92.7235 149.494 100.029 146.566 106.728C143.638 113.428 139.154 119.326 133.487 123.929C127.821 128.533 121.137 131.708 113.997 133.188C106.856 134.669 99.4661 134.412 92.4449 132.439C85.4237 130.465 78.9757 126.834 73.6408 121.847C68.3058 116.861 64.239 110.665 61.7808 103.779C59.3227 96.892 58.5446 89.5147 59.5118 82.2644Z"
        fill="#D9D9D9" fill-opacity="0.6" />
    <path
        d="M29.4415 102.735C30.4654 110.404 33.4088 117.687 37.9971 123.907C42.5854 130.126 48.6692 135.077 55.6807 138.3C62.6923 141.523 70.4034 142.911 78.0945 142.336C85.7856 141.761 93.2061 139.241 99.664 135.011L117.258 141.012C117.789 141.187 118.359 141.206 118.9 141.067C119.442 140.928 119.932 140.636 120.313 140.227C120.695 139.817 120.951 139.306 121.052 138.754C121.153 138.203 121.095 137.634 120.883 137.115L113.828 120.23C117.58 113.959 119.781 106.876 120.245 99.5761C120.709 92.276 119.424 84.9705 116.496 78.2712C113.568 71.5719 109.083 65.6736 103.417 61.07C97.7504 56.4665 91.0672 53.2916 83.9266 51.8112C76.786 50.3308 69.3958 50.5879 62.3746 52.561C55.3534 54.5341 48.9054 58.1657 43.5704 63.152C38.2355 68.1383 34.1687 74.3341 31.7105 81.2208C29.2523 88.1075 28.4743 95.4848 29.4415 102.735Z"
        fill="#0BA0D0" />
    <path fill-rule="evenodd" clip-rule="evenodd"
        d="M66.4214 110.079C66.4214 104.267 70.6815 100.016 75.3928 100.016C80.104 100.016 84.3641 104.267 84.3641 110.079H90.4408C90.4408 101.42 83.947 93.9395 75.3928 93.9395C66.8385 93.9395 60.3447 101.42 60.3447 110.079H66.4214Z"
        fill="white" />
    <path
        d="M59.0156 93.7023C62.0305 93.7023 64.4746 91.2583 64.4746 88.2434C64.4746 85.2285 62.0305 82.7844 59.0156 82.7844C56.0007 82.7844 53.5566 85.2285 53.5566 88.2434C53.5566 91.2583 56.0007 93.7023 59.0156 93.7023Z"
        fill="white" />
    <path
        d="M91.7685 93.7023C94.7834 93.7023 97.2275 91.2583 97.2275 88.2434C97.2275 85.2285 94.7834 82.7844 91.7685 82.7844C88.7536 82.7844 86.3096 85.2285 86.3096 88.2434C86.3096 91.2583 88.7536 93.7023 91.7685 93.7023Z"
        fill="white" />
</svg>
