<svg width="90" height="90" viewBox="0 0 90 90" fill="none" xmlns="http://www.w3.org/2000/svg">
<path d="M45 43.6296C34.5051 43.6296 26 49.6456 26 55.8148C26 61.984 34.5051 68 45 68C55.4949 68 64 61.984 64 55.8148C64 49.6456 55.4949 43.6296 45 43.6296ZM45 41.8889C47.7486 41.8889 50.3846 40.7885 52.3282 38.8298C54.2718 36.8711 55.3636 34.2145 55.3636 31.4444C55.3636 28.6744 54.2718 26.0178 52.3282 24.0591C50.3846 22.1004 47.7486 21 45 21C42.2514 21 39.6154 22.1004 37.6718 24.0591C35.7282 26.0178 34.6364 28.6744 34.6364 31.4444C34.6364 34.2145 35.7282 36.8711 37.6718 38.8298C39.6154 40.7885 42.2514 41.8889 45 41.8889Z" fill="black" fill-opacity="0.14"/>
<path fill-rule="evenodd" clip-rule="evenodd" d="M4.66919 45.0007C4.66919 22.7252 22.727 4.66736 45.0025 4.66736C67.278 4.66736 85.3359 22.7252 85.3359 45.0007C85.3359 67.2762 67.278 85.334 45.0025 85.334C22.727 85.334 4.66919 67.2762 4.66919 45.0007Z" fill="black" fill-opacity="0.05"/>
<path fill-rule="evenodd" clip-rule="evenodd" d="M1 45C1 20.6995 20.6995 1 45 1V1C69.3005 1 89 20.6995 89 45V45C89 69.3005 69.3005 89 45 89V89C20.6995 89 1 69.3005 1 45V45Z" stroke="#C4C4C4" stroke-width="0.5" stroke-linecap="round"/>
</svg>
