<svg width="104" height="104" viewBox="0 0 104 104" fill="none" xmlns="http://www.w3.org/2000/svg">
    <rect width="104" height="104" rx="24" fill="#0BA0D0" />
    <g opacity="0.3">
        <path
            d="M85.2799 40.3824C84.8757 39.5906 84.2063 38.813 83.4238 39.2148C83.3862 39.2323 83.2029 39.3287 82.9091 39.4768C82.6812 39.5931 82.4041 39.7375 82.0399 39.9254L52.376 55.1285C52.409 54.9899 52.4289 54.8561 52.4677 54.7197C53.0222 53.3922 61.459 18.4666 61.459 18.4666L61.1885 16.795L48.6274 47.5537L50.4575 51.9132L48.2009 57.2687L24.9922 69.1641C24.1606 69.5916 23.6719 69.8407 23.612 69.8689C22.8297 70.2731 23.0681 71.2739 23.4721 72.0585C23.8763 72.8505 27.942 80.3991 28.4977 81.4846C29.8403 80.9584 29.9202 80.1476 29.4868 79.2997C29.051 78.4539 26.1578 72.806 26.1578 72.806C26.1578 72.806 26.3575 72.705 26.7157 72.5193L27.4275 72.1529L31.222 79.5559L32.2922 79.0038L28.4979 71.6032L29.3955 71.1451L33.1921 78.5483L34.2621 77.9986L30.4689 70.5978L31.222 70.2099L35.0152 77.6131L36.0864 77.0634L32.292 69.662L33.1919 69.2017L36.9862 76.6022L38.0588 76.0526L34.2643 68.652L35.1912 68.1728L38.9855 75.5783L40.0557 75.0287L36.2614 67.6231L37.159 67.1625L40.9263 74.5138C40.857 74.6502 40.7772 74.7842 40.7126 74.9275C38.9658 78.6794 39.7118 82.9976 42.5218 85.4223C43.0316 85.8663 43.6026 86.2353 44.2135 86.517C46.1953 87.4429 48.4578 87.4335 50.5792 86.4937C52.6446 85.5822 54.3336 83.8905 55.3392 81.7339C56.8241 78.5386 56.4976 74.9391 54.6367 72.437C54.4511 72.0777 53.7228 70.5739 53.046 68.3655L53.5793 68.0931L52.3635 65.7201C52.1474 64.6912 51.9675 63.5892 51.8665 62.4144L54.5284 67.6068L55.5974 67.0593L51.8007 59.6537L52.7007 59.1956L56.4949 66.5988L57.5685 66.0491L53.7743 58.6483L54.5308 58.2584L58.3226 65.6592L59.3964 65.1117L55.6022 57.7085L56.4998 57.248L60.2964 64.6487L61.3676 64.1013L57.5685 56.7076L58.4967 56.2329L62.2931 63.6359L63.3645 63.0884L59.5703 55.6855L60.4703 55.2273L64.2645 62.6281L65.3333 62.0784L61.5366 54.6754L62.4153 54.2221L66.2097 61.6275L67.2809 61.08L63.4866 53.6767L64.3864 53.2161L68.1809 60.6169L69.2496 60.0672L65.4576 52.6665L66.3855 52.1896L70.1798 59.5928L71.2512 59.0431L67.4569 51.6411L68.3519 51.1794L72.1487 58.585L73.2199 58.0375L69.4233 50.6331L70.3725 50.1468L74.1668 57.5486L75.2382 56.9989L71.4413 49.5959L72.3413 49.1366L76.1355 56.5385L77.2093 55.9911L73.4151 48.5879L74.1716 48.198L77.9636 55.6034L79.0348 55.0537L75.2384 47.6505L76.1381 47.19L79.9324 54.5907L81.0037 54.0433L77.2095 46.6403L78.1374 46.1632L81.9317 53.5664L83.0029 53.019L79.209 45.6144L80.104 45.155L83.8982 52.558L84.9672 52.0059L81.173 44.6039L82.1128 44.1223L85.907 51.5254L86.9758 50.9768L83.1815 43.5736L83.762 43.2752C84.1238 43.0931 84.3234 42.9899 84.3234 42.9899C84.3234 42.9899 87.218 48.638 87.6526 49.4827C88.0848 50.3319 88.7876 50.7408 89.9998 49.9573C89.4409 48.8791 85.6863 41.1705 85.2799 40.3824ZM50.5929 46.8656C51.0911 46.29 51.9591 46.2254 52.5359 46.7234C53.1091 47.2216 53.1749 48.092 52.677 48.6676C52.1788 49.242 51.3096 49.3078 50.7328 48.8098C50.1571 48.3117 50.0948 47.4401 50.5929 46.8656ZM45.9186 62.675L45.8635 62.8158L45.8201 62.7287L45.9186 62.675ZM44.7462 63.2763L45.2527 64.263L44.7392 65.4753L43.8499 63.7415L44.7462 63.2763ZM42.7787 64.289L44.1308 66.9251L43.7032 67.9448L42.0258 64.6767L42.7787 64.289ZM40.9508 65.224L43.0888 69.3944L42.5789 70.6045L40.0581 65.6823L40.9508 65.224ZM38.9855 66.2344L41.9681 72.0517L41.5369 73.0734L38.229 66.6197L38.9855 66.2344ZM52.9705 80.6411C52.2315 82.222 51.0086 83.4555 49.525 84.111C48.1001 84.7408 46.6069 84.7595 45.3148 84.1581C44.9249 83.9748 44.5571 83.7374 44.2294 83.4555C42.298 81.785 41.8234 78.7356 43.0793 76.0385C43.8183 74.455 45.04 73.2215 46.5249 72.566C47.9461 71.9364 49.4429 71.9199 50.7326 72.5191C51.1273 72.7048 51.4903 72.9372 51.8204 73.2215C53.7528 74.8874 54.2274 77.9414 52.9705 80.6411Z"
            fill="white" />
        <path
            d="M54.6504 50.5729L81.7396 34.5568L79.9658 34.5886C79.9658 34.5886 66.3248 40.1531 56.2153 44.3351C55.623 46.7209 55.0828 48.8766 54.6504 50.5729Z"
            fill="white" />
        <path
            d="M27.1125 63.1683C27.1243 63.1589 27.1382 63.1496 27.1501 63.1402C27.136 63.1729 27.129 63.1943 27.129 63.1943L48.6345 50.4533L48.6485 50.4557L47.5924 47.9407C46.472 48.4177 45.7507 48.737 45.5885 48.8334C37.1222 52.3047 28.1804 49.173 27.5424 48.9392C24.8383 47.5367 21.3165 47.7292 18.4244 49.577C16.4179 50.8599 14.9672 52.7582 14.3377 54.9268C13.688 57.154 13.9842 59.3954 15.16 61.2374C15.5406 61.8342 16.0046 62.3698 16.539 62.8301C19.3148 65.231 23.6671 65.3721 27.1125 63.1683ZM18.2422 60.8517C17.9003 60.5557 17.6043 60.2103 17.3611 59.8322C16.5941 58.6292 16.4106 57.1492 16.8466 55.6503C17.2989 54.095 18.3597 52.7194 19.8292 51.7784C22.3102 50.1925 25.3797 50.2406 27.2923 51.8935C27.6364 52.1896 27.9326 52.5337 28.178 52.9156C28.9428 54.1139 29.1259 55.5963 28.6925 57.0905C28.2402 58.648 27.1795 60.0226 25.7075 60.9646C23.2243 62.5528 20.157 62.5058 18.2422 60.8517Z"
            fill="white" />
    </g>
    <path
        d="M27.9555 57.112C27.2195 57.112 26.5582 56.984 25.9715 56.728C25.3955 56.4613 24.9422 56.0987 24.6115 55.64C24.2808 55.1707 24.1102 54.632 24.0995 54.024H25.6515C25.7048 54.5467 25.9182 54.9893 26.2915 55.352C26.6755 55.704 27.2302 55.88 27.9555 55.88C28.6488 55.88 29.1928 55.7093 29.5875 55.368C29.9928 55.016 30.1955 54.568 30.1955 54.024C30.1955 53.5973 30.0782 53.2507 29.8435 52.984C29.6088 52.7173 29.3155 52.5147 28.9635 52.376C28.6115 52.2373 28.1368 52.088 27.5395 51.928C26.8035 51.736 26.2115 51.544 25.7635 51.352C25.3262 51.16 24.9475 50.8613 24.6275 50.456C24.3182 50.04 24.1635 49.4853 24.1635 48.792C24.1635 48.184 24.3182 47.6453 24.6275 47.176C24.9368 46.7067 25.3688 46.344 25.9235 46.088C26.4888 45.832 27.1342 45.704 27.8595 45.704C28.9048 45.704 29.7582 45.9653 30.4195 46.488C31.0915 47.0107 31.4702 47.704 31.5555 48.568H29.9555C29.9022 48.1413 29.6782 47.768 29.2835 47.448C28.8888 47.1173 28.3662 46.952 27.7155 46.952C27.1075 46.952 26.6115 47.112 26.2275 47.432C25.8435 47.7413 25.6515 48.1787 25.6515 48.744C25.6515 49.1493 25.7635 49.48 25.9875 49.736C26.2222 49.992 26.5048 50.1893 26.8355 50.328C27.1768 50.456 27.6515 50.6053 28.2595 50.776C28.9955 50.9787 29.5875 51.1813 30.0355 51.384C30.4835 51.576 30.8675 51.88 31.1875 52.296C31.5075 52.7013 31.6675 53.256 31.6675 53.96C31.6675 54.504 31.5235 55.016 31.2355 55.496C30.9475 55.976 30.5208 56.3653 29.9555 56.664C29.3902 56.9627 28.7235 57.112 27.9555 57.112ZM34.2661 52.584C34.2661 51.688 34.4475 50.904 34.8101 50.232C35.1728 49.5493 35.6688 49.0213 36.2981 48.648C36.9381 48.2747 37.6475 48.088 38.4261 48.088C39.1941 48.088 39.8608 48.2533 40.4261 48.584C40.9915 48.9147 41.4128 49.3307 41.6901 49.832V48.232H43.1621V57H41.6901V55.368C41.4021 55.88 40.9701 56.3067 40.3941 56.648C39.8288 56.9787 39.1675 57.144 38.4101 57.144C37.6315 57.144 36.9275 56.952 36.2981 56.568C35.6688 56.184 35.1728 55.6453 34.8101 54.952C34.4475 54.2587 34.2661 53.4693 34.2661 52.584ZM41.6901 52.6C41.6901 51.9387 41.5568 51.3627 41.2901 50.872C41.0235 50.3813 40.6608 50.008 40.2021 49.752C39.7541 49.4853 39.2581 49.352 38.7141 49.352C38.1701 49.352 37.6741 49.48 37.2261 49.736C36.7781 49.992 36.4208 50.3653 36.1541 50.856C35.8875 51.3467 35.7541 51.9227 35.7541 52.584C35.7541 53.256 35.8875 53.8427 36.1541 54.344C36.4208 54.8347 36.7781 55.2133 37.2261 55.48C37.6741 55.736 38.1701 55.864 38.7141 55.864C39.2581 55.864 39.7541 55.736 40.2021 55.48C40.6608 55.2133 41.0235 54.8347 41.2901 54.344C41.5568 53.8427 41.6901 53.2613 41.6901 52.6ZM48.0786 45.16V57H46.6226V45.16H48.0786ZM55.3841 57.144C54.5628 57.144 53.8161 56.9573 53.1441 56.584C52.4828 56.2107 51.9601 55.6827 51.5761 55C51.2028 54.3067 51.0161 53.5067 51.0161 52.6C51.0161 51.704 51.2081 50.9147 51.5921 50.232C51.9868 49.5387 52.5201 49.0107 53.1921 48.648C53.8641 48.2747 54.6161 48.088 55.4481 48.088C56.2801 48.088 57.0321 48.2747 57.7041 48.648C58.3761 49.0107 58.9041 49.5333 59.2881 50.216C59.6828 50.8987 59.8801 51.6933 59.8801 52.6C59.8801 53.5067 59.6775 54.3067 59.2721 55C58.8775 55.6827 58.3388 56.2107 57.6561 56.584C56.9735 56.9573 56.2161 57.144 55.3841 57.144ZM55.3841 55.864C55.9068 55.864 56.3975 55.7413 56.8561 55.496C57.3148 55.2507 57.6828 54.8827 57.9601 54.392C58.2481 53.9013 58.3921 53.304 58.3921 52.6C58.3921 51.896 58.2535 51.2987 57.9761 50.808C57.6988 50.3173 57.3361 49.9547 56.8881 49.72C56.4401 49.4747 55.9548 49.352 55.4321 49.352C54.8988 49.352 54.4081 49.4747 53.9601 49.72C53.5228 49.9547 53.1708 50.3173 52.9041 50.808C52.6375 51.2987 52.5041 51.896 52.5041 52.6C52.5041 53.3147 52.6321 53.9173 52.8881 54.408C53.1548 54.8987 53.5068 55.2667 53.9441 55.512C54.3815 55.7467 54.8615 55.864 55.3841 55.864ZM67.0665 48.072C68.1332 48.072 68.9972 48.3973 69.6585 49.048C70.3198 49.688 70.6505 50.616 70.6505 51.832V57H69.2105V52.04C69.2105 51.1653 68.9918 50.4987 68.5545 50.04C68.1172 49.5707 67.5198 49.336 66.7625 49.336C65.9945 49.336 65.3812 49.576 64.9225 50.056C64.4745 50.536 64.2505 51.2347 64.2505 52.152V57H62.7945V48.232H64.2505V49.48C64.5385 49.032 64.9278 48.6853 65.4185 48.44C65.9198 48.1947 66.4692 48.072 67.0665 48.072ZM81.5809 48.232L76.3009 61.128H74.7969L76.5249 56.904L72.9889 48.232H74.6049L77.3569 55.336L80.0769 48.232H81.5809Z"
        fill="white" />
</svg>
