<svg width="76" height="72" viewBox="0 0 76 72" fill="none" xmlns="http://www.w3.org/2000/svg">
<path d="M71.2799 24.3824C70.8757 23.5906 70.2063 22.813 69.4238 23.2148C69.3862 23.2323 69.2029 23.3287 68.9091 23.4768C68.6812 23.5931 68.4041 23.7375 68.0399 23.9254L38.376 39.1285C38.409 38.9899 38.4289 38.8561 38.4677 38.7197C39.0222 37.3922 47.459 2.46662 47.459 2.46662L47.1885 0.795044L34.6274 31.5537L36.4575 35.9132L34.2009 41.2687L10.9922 53.1641C10.1606 53.5916 9.67192 53.8407 9.61197 53.8689C8.8297 54.2731 9.06812 55.2739 9.47213 56.0585C9.87634 56.8505 13.942 64.3991 14.4977 65.4846C15.8403 64.9584 15.9202 64.1476 15.4868 63.2997C15.051 62.4539 12.1578 56.806 12.1578 56.806C12.1578 56.806 12.3575 56.705 12.7157 56.5193L13.4275 56.1529L17.222 63.5559L18.2922 63.0038L14.4979 55.6032L15.3955 55.1451L19.1921 62.5483L20.2621 61.9986L16.4689 54.5978L17.222 54.2099L21.0152 61.6131L22.0864 61.0634L18.292 53.662L19.1919 53.2017L22.9862 60.6022L24.0588 60.0526L20.2643 52.652L21.1912 52.1728L24.9855 59.5783L26.0557 59.0287L22.2614 51.6231L23.159 51.1625L26.9263 58.5138C26.857 58.6502 26.7772 58.7842 26.7126 58.9275C24.9658 62.6794 25.7118 66.9976 28.5218 69.4223C29.0316 69.8663 29.6026 70.2353 30.2135 70.517C32.1953 71.4429 34.4578 71.4335 36.5792 70.4937C38.6446 69.5822 40.3336 67.8905 41.3392 65.7339C42.8241 62.5386 42.4976 58.9391 40.6367 56.437C40.4511 56.0777 39.7228 54.5739 39.046 52.3655L39.5793 52.0931L38.3635 49.7201C38.1474 48.6912 37.9675 47.5892 37.8665 46.4144L40.5284 51.6068L41.5974 51.0593L37.8007 43.6537L38.7007 43.1956L42.4949 50.5988L43.5685 50.0491L39.7743 42.6483L40.5308 42.2584L44.3226 49.6592L45.3964 49.1117L41.6022 41.7085L42.4998 41.248L46.2964 48.6487L47.3676 48.1013L43.5685 40.7076L44.4967 40.2329L48.2931 47.6359L49.3645 47.0884L45.5703 39.6855L46.4703 39.2273L50.2645 46.6281L51.3333 46.0784L47.5366 38.6754L48.4153 38.2221L52.2097 45.6275L53.2809 45.08L49.4866 37.6767L50.3864 37.2161L54.1809 44.6169L55.2496 44.0672L51.4576 36.6665L52.3855 36.1896L56.1798 43.5928L57.2512 43.0431L53.4569 35.6411L54.3519 35.1794L58.1487 42.585L59.2199 42.0375L55.4233 34.6331L56.3725 34.1468L60.1668 41.5486L61.2382 40.9989L57.4413 33.5959L58.3413 33.1366L62.1355 40.5385L63.2093 39.9911L59.4151 32.5879L60.1716 32.198L63.9636 39.6034L65.0348 39.0537L61.2384 31.6505L62.1381 31.19L65.9324 38.5907L67.0037 38.0433L63.2095 30.6403L64.1374 30.1632L67.9317 37.5664L69.0029 37.019L65.209 29.6144L66.104 29.155L69.8982 36.558L70.9672 36.0059L67.173 28.6039L68.1128 28.1223L71.907 35.5254L72.9758 34.9768L69.1815 27.5736L69.762 27.2752C70.1238 27.0931 70.3234 26.9899 70.3234 26.9899C70.3234 26.9899 73.218 32.638 73.6526 33.4827C74.0848 34.3319 74.7876 34.7408 75.9998 33.9573C75.4409 32.8791 71.6863 25.1705 71.2799 24.3824ZM36.5929 30.8656C37.0911 30.29 37.9591 30.2254 38.5359 30.7234C39.1091 31.2216 39.1749 32.092 38.677 32.6676C38.1788 33.242 37.3096 33.3078 36.7328 32.8098C36.1571 32.3117 36.0948 31.4401 36.5929 30.8656ZM31.9186 46.675L31.8635 46.8158L31.8201 46.7287L31.9186 46.675ZM30.7462 47.2763L31.2527 48.263L30.7392 49.4753L29.8499 47.7415L30.7462 47.2763ZM28.7787 48.289L30.1308 50.9251L29.7032 51.9448L28.0258 48.6767L28.7787 48.289ZM26.9508 49.224L29.0888 53.3944L28.5789 54.6045L26.0581 49.6823L26.9508 49.224ZM24.9855 50.2344L27.9681 56.0517L27.5369 57.0734L24.229 50.6197L24.9855 50.2344ZM38.9705 64.6411C38.2315 66.222 37.0086 67.4555 35.525 68.111C34.1001 68.7408 32.6069 68.7595 31.3148 68.1581C30.9249 67.9748 30.5571 67.7374 30.2294 67.4555C28.298 65.785 27.8234 62.7356 29.0793 60.0385C29.8183 58.455 31.04 57.2215 32.5249 56.566C33.9461 55.9364 35.4429 55.9199 36.7326 56.5191C37.1273 56.7048 37.4903 56.9372 37.8204 57.2215C39.7528 58.8874 40.2274 61.9414 38.9705 64.6411Z" fill="white"/>
<path d="M40.6504 34.5729L67.7396 18.5568L65.9658 18.5886C65.9658 18.5886 52.3248 24.1531 42.2153 28.3351C41.623 30.7209 41.0828 32.8766 40.6504 34.5729Z" fill="white"/>
<path d="M13.1125 47.1683C13.1243 47.1589 13.1382 47.1496 13.1501 47.1402C13.136 47.1729 13.129 47.1943 13.129 47.1943L34.6345 34.4533L34.6485 34.4557L33.5924 31.9407C32.472 32.4177 31.7507 32.737 31.5885 32.8334C23.1222 36.3047 14.1804 33.173 13.5424 32.9392C10.8383 31.5367 7.31649 31.7292 4.42444 33.577C2.41787 34.8599 0.967215 36.7582 0.33766 38.9268C-0.312016 41.154 -0.0158492 43.3954 1.15997 45.2374C1.54064 45.8342 2.0046 46.3698 2.53899 46.8301C5.31475 49.231 9.66712 49.3721 13.1125 47.1683ZM4.24215 44.8517C3.90031 44.5557 3.60435 44.2103 3.3611 43.8322C2.59412 42.6292 2.41063 41.1492 2.84663 39.6503C3.29893 38.095 4.35965 36.7194 5.82922 35.7784C8.31022 34.1925 11.3797 34.2406 13.2923 35.8935C13.6364 36.1896 13.9326 36.5337 14.178 36.9156C14.9428 38.1139 15.1259 39.5963 14.6925 41.0905C14.2402 42.648 13.1795 44.0226 11.7075 44.9646C9.22427 46.5528 6.15698 46.5058 4.24215 44.8517Z" fill="white"/>
</svg>
