<svg width="512" height="512" viewBox="0 0 512 512" fill="none" xmlns="http://www.w3.org/2000/svg">
<rect width="512" height="512" rx="93" fill="#06668E"/>
<path d="M447 191.581L263.565 256.407C257.928 258.4 251.775 258.388 246.145 256.374L65 191.581" stroke="white" stroke-width="15" stroke-linecap="round"/>
<path d="M421.687 178L264.394 230.381C258.201 232.444 251.503 232.43 245.318 230.341L90.3132 178" stroke="white" stroke-width="6" stroke-linecap="round"/>
<path d="M333.631 321.137C337.479 331.04 326.474 336.071 319.608 327.963C302.008 307.183 290.891 292.823 256 292.823C222.158 292.823 209.422 305.995 192.979 325.844C186.028 334.235 174.902 329.359 179.107 319.307C191.352 290.032 221.165 269.365 256 269.365C291.556 269.365 321.881 290.897 333.631 321.137Z" fill="white"/>
</svg>
