<svg width="66" height="67" viewBox="0 0 66 67" fill="none" xmlns="http://www.w3.org/2000/svg">
    <g clip-path="url(#clip0_201_815)">
        <path
            d="M51.8181 26.1895L50.1817 29.4622L47.7272 25.3713L45.2726 23.735H41.1817H37.0908L29.7272 21.2804L23.1817 19.644L19.909 20.4622L17.4544 25.3713V27.0077L15.8181 30.2804L14.1817 25.3713L13.3635 18.0077L15.8181 12.2804L19.0908 9.00768L24.8181 4.09859L32.1817 1.64404L39.5454 3.28041L42.8181 4.09859L41.1817 7.37132L42.8181 8.1895L49.3635 12.2804L52.6363 18.0077L51.8181 26.1895Z"
            fill="#06668E" />
        <path
            d="M26.8635 57.4167L17.318 48.553L16.6362 42.4167L17.318 41.7349L20.0453 43.0985L20.7271 44.4621L21.409 47.1894L23.4544 47.8712L24.818 48.553L25.4999 46.5076L26.8635 45.8258L32.3181 45.144L39.1362 45.8258L39.8181 46.5076L41.1817 48.553H42.5453L45.2726 45.8258L44.5908 43.7803L45.9544 42.4167H49.3635V45.8258L48.6817 48.553L39.1362 57.4167L36.409 58.7803L28.909 58.0985L26.8635 57.4167Z"
            fill="#06668E" stroke="black" stroke-width="0.1" />
        <path
            d="M15.5453 43.2807V45.444C15.5463 47.4871 16.4252 49.4313 17.9584 50.7818L22.0024 54.3163C21.8112 57.3819 21.1633 60.4018 20.0802 63.276C19.8017 63.9443 19.8763 64.7076 20.2787 65.3094C20.685 65.9184 21.3696 66.283 22.1016 66.2803H43.898C44.63 66.283 45.3146 65.9184 45.7209 65.3094C46.1227 64.7087 46.1981 63.947 45.9216 63.2792C44.8377 60.4044 44.1891 57.3838 43.9973 54.3174L48.0456 50.7785C49.5763 49.428 50.4535 47.4853 50.4544 45.444V43.2807C53.446 42.7762 55.6989 40.282 55.8974 37.2546C56.0959 34.2272 54.188 31.4602 51.2878 30.5694C52.346 28.7531 53.7271 25.2622 53.7271 19.3713C53.7271 11.5462 45.5889 8.4938 42.23 7.37125C42.5974 6.98421 43.0379 6.67386 43.526 6.45816C44.182 6.14932 44.5963 5.48481 44.5848 4.75981C44.5732 4.03482 44.1381 3.38381 43.4725 3.09598C27.7165 -3.66002 20.0551 6.70253 18.794 8.64325C15.9335 10.0361 13.7801 12.5545 12.8485 15.5967C11.1304 21.2443 13.6591 27.7058 14.9802 30.5007C12.0027 31.2868 9.97589 34.042 10.1119 37.1185C10.248 40.1949 12.5101 42.7605 15.5453 43.2807ZM43.898 64.0985L22.0962 64.1105C23.0916 61.5327 23.7405 58.8343 24.026 56.0858L26.1958 57.9829C27.4885 59.1112 29.1458 59.7335 30.8616 59.7349H35.138C36.8543 59.7335 38.5121 59.1107 39.8049 57.9818L41.9736 56.0869C42.2579 58.8308 42.905 61.5248 43.898 64.0985ZM46.6056 49.1389L38.3704 56.3389C37.4748 57.1205 36.3267 57.5517 35.138 57.5531H30.8616C29.6733 57.5516 28.5256 57.1203 27.6304 56.3389L19.3984 49.1389C18.3373 48.2038 17.7286 46.8583 17.7271 45.444V43.3713H18.818C19.4205 43.3713 19.9089 43.8597 19.9089 44.4622V46.0985C19.9104 46.7849 20.2335 47.4309 20.7816 47.844L22.9635 49.4803C23.6246 49.9762 24.5091 50.0559 25.2483 49.6864C25.9874 49.3168 26.4544 48.5613 26.4544 47.7349C26.4544 47.1324 26.9428 46.644 27.5453 46.644H38.4544C39.0569 46.644 39.5453 47.1324 39.5453 47.7349C39.5453 48.5613 40.0122 49.3168 40.7513 49.6864C41.4905 50.0559 42.375 49.9762 43.0362 49.4803L45.218 47.844C45.7662 47.4309 46.0892 46.7849 46.0907 46.0985V44.4622C46.0907 43.8597 46.5791 43.3713 47.1816 43.3713H48.2725V45.444C48.2722 46.8576 47.6652 48.2031 46.6056 49.1389ZM14.9376 16.2251C15.7421 13.6618 17.6 11.5623 20.0464 10.452C20.2422 10.3543 20.4041 10.2 20.5111 10.0091C20.774 9.54325 27.0315 -1.17711 41.954 4.82616C41.2599 5.24294 40.6537 5.79097 40.1693 6.43962C39.8151 6.91499 39.7113 7.53174 39.8903 8.09687C40.0693 8.66201 40.5093 9.1065 41.0725 9.29125C43.6624 10.1389 51.5453 12.7167 51.5453 19.3713C51.6255 22.2766 51.1535 25.1707 50.1544 27.9C49.6365 25.8437 48.4022 24.0396 46.6733 22.812C46.4417 22.6669 46.1644 22.6132 45.8955 22.6614C37.7464 24.144 35.7075 23.148 32.0071 21.3425C30.0382 20.3416 28.0003 19.4827 25.9089 18.7723C23.8479 17.9064 21.4894 18.1369 19.6351 19.3854C17.2831 21.0763 16.2871 24.3763 15.8627 26.9127C14.8045 23.9531 13.8445 19.8076 14.9376 16.2251ZM15.5453 32.6171V34.644C15.5453 35.2465 16.0337 35.7349 16.6362 35.7349C17.2387 35.7349 17.7271 35.2465 17.7271 34.644V31.2622C17.7271 31.2622 17.7271 31.2523 17.7271 31.2469V30.3033C17.7271 28.3942 18.3075 23.0302 20.9104 21.1603C22.1996 20.3352 23.8183 20.2166 25.214 20.8451C27.2148 21.5234 29.1648 22.3433 31.0493 23.2985C34.8249 25.1411 37.3405 26.3683 45.8191 24.8869C47.4093 26.2291 48.3105 28.2161 48.2725 30.2967V34.644C48.2725 35.2465 48.761 35.7349 49.3634 35.7349C49.9659 35.7349 50.4544 35.2465 50.4544 34.644V32.6171C52.5798 33.1641 53.966 35.2072 53.6889 37.3843C53.4119 39.5614 51.5581 41.1922 49.3634 41.1894H47.1816C45.3742 41.1894 43.9089 42.6547 43.9089 44.4622V46.0985L41.7271 47.7349C41.7271 45.9274 40.2618 44.4622 38.4544 44.4622H27.5453C25.7378 44.4622 24.2725 45.9274 24.2725 47.7349L22.0907 46.0985V44.4622C22.0907 42.6547 20.6255 41.1894 18.818 41.1894H16.6362C14.4415 41.1922 12.5877 39.5614 12.3107 37.3843C12.0336 35.2072 13.4199 33.1641 15.5453 32.6171Z"
            fill="black" />
    </g>
    <defs>
        <clipPath id="clip0_201_815">
            <rect width="65.4546" height="65.4545" fill="white"
                transform="translate(0.272461 0.825928)" />
        </clipPath>
    </defs>
</svg>
