<svg width="210" height="177" viewBox="0 0 210 177" fill="none" xmlns="http://www.w3.org/2000/svg">
    <path
        d="M95.335 160C139.518 160 175.335 124.183 175.335 80C175.335 35.8172 139.518 0 95.335 0C51.1522 0 15.335 35.8172 15.335 80C15.335 124.183 51.1522 160 95.335 160Z"
        fill="url(#paint0_linear_310_2191)" />
    <g filter="url(#filter0_d_310_2191)">
        <rect x="54.6689" y="23.0374" width="83.0247" height="103.353" rx="16" fill="white" />
    </g>
    <rect x="62.0039" y="36.3706" width="50" height="1.73334" rx="0.866668" fill="#011625" />
    <rect x="62.0039" y="56.104" width="66.6667" height="1.73334" rx="0.866668" fill="#E5E5E5" />
    <rect x="62.0039" y="75.8372" width="66.6667" height="1.73334" rx="0.866668" fill="#E5E5E5" />
    <rect x="62.0039" y="95.5706" width="66.6667" height="1.73334" rx="0.866668" fill="#E5E5E5" />
    <rect x="62.0039" y="115.304" width="66.6667" height="1.73334" rx="0.866668" fill="#E5E5E5" />
    <g filter="url(#filter1_d_310_2191)">
        <path
            d="M187.433 11.616H147.379C145.513 11.616 144 13.2083 144 15.1726V34.9853C144 36.9496 145.513 38.5419 147.379 38.5419H187.433C189.3 38.5419 190.813 36.9496 190.813 34.9853V15.1726C190.813 13.2083 189.3 11.616 187.433 11.616Z"
            fill="white" />
    </g>
    <path
        d="M154 29.333C156.209 29.333 158 27.5421 158 25.333C158 23.1239 156.209 21.333 154 21.333C151.791 21.333 150 23.1239 150 25.333C150 27.5421 151.791 29.333 154 29.333Z"
        fill="#E5E5E5" />
    <rect x="163.335" y="21.333" width="21.3333" height="8" rx="4" fill="#E5E5E5" />
    <path fill-rule="evenodd" clip-rule="evenodd"
        d="M118.742 131.042C127.329 131.042 135.309 128.445 141.94 123.992L169.074 149.894L178.914 138.477L152.731 113.483C157.566 106.678 160.409 98.3588 160.409 89.3756C160.409 66.3638 141.754 47.709 118.742 47.709C95.73 47.709 77.0752 66.3638 77.0752 89.3756C77.0752 112.387 95.73 131.042 118.742 131.042ZM154.281 89.3758C154.281 108.858 138.487 124.651 119.005 124.651C99.5232 124.651 83.7298 108.858 83.7298 89.3758C83.7298 69.8937 99.5232 54.1003 119.005 54.1003C138.487 54.1003 154.281 69.8937 154.281 89.3758Z"
        fill="#E5E5E5" />
    <g filter="url(#filter2_b_310_2191)">
        <path
            d="M119 125.333C139.067 125.333 155.334 109.215 155.334 89.333C155.334 69.4508 139.067 53.333 119 53.333C98.934 53.333 82.667 69.4508 82.667 89.333C82.667 109.215 98.934 125.333 119 125.333Z"
            fill="white" fill-opacity="0.3" />
    </g>
    <path
        d="M123.506 89.1458L123.15 89.5L123.506 89.8542L130.617 96.9379C131.156 97.5479 131.442 98.338 131.418 99.1488C131.394 99.9644 131.058 100.741 130.477 101.319C129.897 101.898 129.115 102.236 128.292 102.262C127.474 102.289 126.677 102.006 126.061 101.472L118.935 94.3891L118.583 94.0388L118.23 94.3891L111.092 101.484L111.087 101.489L111.082 101.494C110.786 101.806 110.429 102.056 110.033 102.228C109.637 102.401 109.21 102.494 108.778 102.5C108.345 102.506 107.916 102.426 107.515 102.264C107.115 102.102 106.751 101.862 106.446 101.559L106.093 101.914L106.446 101.559C106.14 101.255 105.899 100.894 105.737 100.497C105.575 100.099 105.494 99.6738 105.5 99.2452C105.506 98.8166 105.599 98.3934 105.773 98.0008C105.946 97.6081 106.197 97.2538 106.511 96.9589L106.516 96.954L106.521 96.949L113.655 89.8545L114.012 89.5L113.655 89.1455L106.521 82.051L106.516 82.046L106.511 82.0411C106.197 81.7462 105.946 81.3919 105.773 80.9992C105.599 80.6066 105.506 80.1834 105.5 79.7548C105.494 79.3261 105.575 78.9006 105.737 78.5032C105.899 78.1058 106.14 77.7447 106.446 77.4411C106.751 77.1375 107.115 76.8977 107.515 76.7361C107.916 76.5744 108.345 76.4942 108.778 76.5003C109.21 76.5064 109.637 76.5987 110.033 76.7715C110.429 76.9444 110.786 77.1943 111.082 77.5063L111.082 77.5064L111.092 77.516L118.214 84.6105L118.566 84.9616L118.919 84.6109L126.052 77.5216C126.663 76.9504 127.474 76.6371 128.314 76.6489C129.156 76.6608 129.96 76.9986 130.554 77.5897C131.149 78.1807 131.488 78.9782 131.5 79.8125C131.512 80.6448 131.197 81.4494 130.623 82.0563L123.506 89.1458Z"
        fill="#06668E" stroke="#FCFCFC" />
    <path
        d="M169.071 149.895L178.911 138.478L180.394 139.893C181.832 141.266 182.693 143.184 182.787 145.225C182.882 147.265 182.202 149.262 180.897 150.775C179.593 152.289 177.771 153.195 175.832 153.294C173.893 153.394 171.995 152.678 170.557 151.306L169.075 149.891L169.071 149.895Z"
        fill="#E1DCEB" />
    <path fill-rule="evenodd" clip-rule="evenodd"
        d="M32.8763 41.4479C32.8637 40.4972 32.7445 39.5383 32.506 38.5729C31.6695 35.1848 27.9376 33.0097 23.9656 32.4983C19.9951 31.9869 15.8662 33.1506 14.2749 36.0978C13.3647 37.7828 13.2391 39.2351 13.6111 40.4595C13.9814 41.6773 14.8602 42.687 16.0529 43.4738C19.3783 45.6653 25.2022 46.1128 27.8591 45.1965C29.0879 44.772 30.2884 44.2606 31.4576 43.6754C30.7891 47.5061 28.2985 51.135 24.9746 54.4051C17.7509 61.5123 6.54113 66.9066 0.436375 68.8899C0.108382 68.9965 -0.0736775 69.3603 0.0283299 69.7029C0.130337 70.0455 0.478726 70.2373 0.806719 70.1307C7.03231 68.1081 18.4603 62.599 25.8268 55.3509C29.6325 51.6071 32.3443 47.3929 32.8073 42.9624C41.4104 38.1614 48.4756 29.4512 54.516 22.1211C54.7404 21.8506 54.7106 21.4392 54.4501 21.2048C54.1896 20.972 53.7972 21.0015 53.5728 21.2736C47.7788 28.3038 41.0542 36.6666 32.8763 41.4479ZM31.6256 42.1445C31.6727 41.0758 31.5722 39.9907 31.3007 38.8958C30.5772 35.9634 27.2518 34.2292 23.8133 33.7866C21.7057 33.5162 19.5385 33.7391 17.8389 34.5324C16.7701 35.0307 15.8897 35.7536 15.3593 36.7371C14.6625 38.027 14.5118 39.1302 14.7974 40.0661C15.083 41.0086 15.7925 41.7658 16.7168 42.374C19.7472 44.372 25.05 44.7966 27.4683 43.9623C28.8949 43.4706 30.2791 42.8575 31.6256 42.1445Z"
        fill="#011625" />
    <circle cx="185.335" cy="103.333" r="4" fill="#417BA4" />
    <path fill-rule="evenodd" clip-rule="evenodd"
        d="M34.2562 130.929C34.97 130.662 35.7212 130.306 36.3005 129.791C36.9885 129.179 37.2683 128.391 37.4562 127.562C37.6974 126.496 37.7938 125.361 38.0863 124.294C38.1946 123.897 38.4031 123.747 38.4925 123.681C38.7185 123.513 38.947 123.468 39.162 123.485C39.4168 123.504 39.7667 123.606 39.9969 124.055C40.0297 124.12 40.0724 124.218 40.1011 124.352C40.122 124.45 40.1355 124.758 40.1577 124.885C40.2131 125.198 40.2594 125.51 40.3029 125.825C40.4478 126.871 40.531 127.759 40.9885 128.72C41.6092 130.025 42.2312 130.824 43.0746 131.177C43.8902 131.519 44.8654 131.455 46.1114 131.187C46.2299 131.156 46.3472 131.13 46.4633 131.109C47.0127 131.008 47.5378 131.388 47.6457 131.964C47.7536 132.539 47.4045 133.1 46.8601 133.227C46.7464 133.253 46.6344 133.278 46.5237 133.301C44.84 133.74 42.8908 135.305 41.7581 136.676C41.409 137.099 40.8978 138.28 40.3764 139.034C39.9916 139.59 39.5591 139.957 39.1961 140.086C38.9528 140.174 38.7477 140.16 38.5782 140.116C38.3321 140.052 38.1278 139.912 37.9711 139.689C37.8857 139.567 37.8065 139.403 37.7688 139.194C37.7507 139.093 37.7487 138.838 37.7491 138.722C37.6428 138.337 37.5128 137.962 37.418 137.574C37.192 136.647 36.7485 136.061 36.2217 135.287C35.729 134.562 35.1998 134.106 34.424 133.743C34.3231 133.717 33.5087 133.507 33.2211 133.386C32.801 133.21 32.6008 132.914 32.5282 132.755C32.4047 132.484 32.392 132.248 32.4166 132.051C32.4531 131.761 32.577 131.512 32.7969 131.311C32.9331 131.187 33.1366 131.065 33.409 131.006C33.6195 130.96 34.1778 130.933 34.2562 130.929ZM39.0336 129.42C39.0713 129.508 39.1116 129.597 39.1542 129.687C40.0633 131.598 41.08 132.665 42.3157 133.183L42.3571 133.199C41.5304 133.845 40.7821 134.567 40.2102 135.259C39.9747 135.544 39.6629 136.136 39.3261 136.743C39.0201 135.696 38.5196 134.956 37.8902 134.03C37.4094 133.323 36.9056 132.791 36.2865 132.358C36.7669 132.099 37.2252 131.795 37.6244 131.44C38.289 130.849 38.7284 130.164 39.0336 129.42Z"
        fill="#417BA4" />
    <defs>
        <filter id="filter0_d_310_2191" x="24.6689" y="13.0374" width="143.024" height="163.353"
            filterUnits="userSpaceOnUse" color-interpolation-filters="sRGB">
            <feFlood flood-opacity="0" result="BackgroundImageFix" />
            <feColorMatrix in="SourceAlpha" type="matrix"
                values="0 0 0 0 0 0 0 0 0 0 0 0 0 0 0 0 0 0 127 0" result="hardAlpha" />
            <feOffset dy="20" />
            <feGaussianBlur stdDeviation="15" />
            <feComposite in2="hardAlpha" operator="out" />
            <feColorMatrix type="matrix"
                values="0 0 0 0 0.570833 0 0 0 0 0.570833 0 0 0 0 0.570833 0 0 0 0.19 0" />
            <feBlend mode="normal" in2="BackgroundImageFix" result="effect1_dropShadow_310_2191" />
            <feBlend mode="normal" in="SourceGraphic" in2="effect1_dropShadow_310_2191"
                result="shape" />
        </filter>
        <filter id="filter1_d_310_2191" x="137" y="2.61597" width="72.8125" height="52.926"
            filterUnits="userSpaceOnUse" color-interpolation-filters="sRGB">
            <feFlood flood-opacity="0" result="BackgroundImageFix" />
            <feColorMatrix in="SourceAlpha" type="matrix"
                values="0 0 0 0 0 0 0 0 0 0 0 0 0 0 0 0 0 0 127 0" result="hardAlpha" />
            <feOffset dx="6" dy="4" />
            <feGaussianBlur stdDeviation="6.5" />
            <feComposite in2="hardAlpha" operator="out" />
            <feColorMatrix type="matrix"
                values="0 0 0 0 0.104618 0 0 0 0 0.465612 0 0 0 0 0.545833 0 0 0 0.09 0" />
            <feBlend mode="normal" in2="BackgroundImageFix" result="effect1_dropShadow_310_2191" />
            <feBlend mode="normal" in="SourceGraphic" in2="effect1_dropShadow_310_2191"
                result="shape" />
        </filter>
        <filter id="filter2_b_310_2191" x="74.667" y="45.333" width="88.667" height="88"
            filterUnits="userSpaceOnUse" color-interpolation-filters="sRGB">
            <feFlood flood-opacity="0" result="BackgroundImageFix" />
            <feGaussianBlur in="BackgroundImageFix" stdDeviation="4" />
            <feComposite in2="SourceAlpha" operator="in" result="effect1_backgroundBlur_310_2191" />
            <feBlend mode="normal" in="SourceGraphic" in2="effect1_backgroundBlur_310_2191"
                result="shape" />
        </filter>
        <linearGradient id="paint0_linear_310_2191" x1="94.7183" y1="-26.05" x2="96.3571"
            y2="254.898" gradientUnits="userSpaceOnUse">
            <stop stop-color="#F2F2F2" />
            <stop offset="1" stop-color="#EFEFEF" />
        </linearGradient>
    </defs>
</svg>
