<svg width="210" height="182" viewBox="0 0 210 182" fill="none" xmlns="http://www.w3.org/2000/svg">
    <path
        d="M95.335 160C139.518 160 175.335 124.183 175.335 80C175.335 35.8172 139.518 0 95.335 0C51.1522 0 15.335 35.8172 15.335 80C15.335 124.183 51.1522 160 95.335 160Z"
        fill="url(#paint0_linear_375_1139)" />
    <g filter="url(#filter0_d_375_1139)">
        <rect x="54.6689" y="28.0374" width="83.0247" height="103.353" rx="12" fill="white" />
    </g>
    <rect x="62.0039" y="41.3706" width="50" height="1.73334" rx="0.866668" fill="#011625" />
    <rect x="62.0039" y="61.104" width="66.6667" height="1.73334" rx="0.866668" fill="#D5D5D5" />
    <rect x="62.0039" y="80.8372" width="66.6667" height="1.73334" rx="0.866668" fill="#D5D5D5" />
    <rect x="62.0039" y="100.571" width="66.6667" height="1.73334" rx="0.866668" fill="#D5D5D5" />
    <rect x="62.0039" y="120.304" width="66.6667" height="1.73334" rx="0.866668" fill="#D5D5D5" />
    <g filter="url(#filter1_d_375_1139)">
        <path
            d="M187.433 11.616H147.379C145.513 11.616 144 13.2083 144 15.1726V34.9853C144 36.9496 145.513 38.5419 147.379 38.5419H187.433C189.3 38.5419 190.813 36.9496 190.813 34.9853V15.1726C190.813 13.2083 189.3 11.616 187.433 11.616Z"
            fill="white" />
    </g>
    <path
        d="M154 29.333C156.209 29.333 158 27.5421 158 25.333C158 23.1239 156.209 21.333 154 21.333C151.791 21.333 150 23.1239 150 25.333C150 27.5421 151.791 29.333 154 29.333Z"
        fill="#CCC6D9" />
    <rect x="163.335" y="21.333" width="21.3333" height="8" rx="4" fill="#D5D5D5" />
    <path fill-rule="evenodd" clip-rule="evenodd"
        d="M32.8763 41.4479C32.8637 40.4972 32.7445 39.5383 32.506 38.5729C31.6695 35.1848 27.9376 33.0097 23.9656 32.4983C19.9951 31.9869 15.8662 33.1506 14.2749 36.0978C13.3647 37.7828 13.2391 39.2351 13.6111 40.4595C13.9814 41.6773 14.8602 42.687 16.0529 43.4738C19.3783 45.6653 25.2022 46.1128 27.8591 45.1965C29.0879 44.772 30.2884 44.2606 31.4576 43.6754C30.7891 47.5061 28.2985 51.135 24.9746 54.4051C17.7509 61.5123 6.54113 66.9066 0.436375 68.8899C0.108382 68.9965 -0.0736775 69.3603 0.0283299 69.7029C0.130337 70.0455 0.478726 70.2373 0.806719 70.1307C7.03231 68.1081 18.4603 62.599 25.8268 55.3509C29.6325 51.6071 32.3443 47.3929 32.8073 42.9624C41.4104 38.1614 48.4756 29.4512 54.516 22.1211C54.7404 21.8506 54.7106 21.4392 54.4501 21.2048C54.1896 20.972 53.7972 21.0015 53.5728 21.2736C47.7788 28.3038 41.0542 36.6666 32.8763 41.4479ZM31.6256 42.1445C31.6727 41.0758 31.5722 39.9907 31.3007 38.8958C30.5772 35.9634 27.2518 34.2292 23.8133 33.7866C21.7057 33.5162 19.5385 33.7391 17.8389 34.5324C16.7701 35.0307 15.8897 35.7536 15.3593 36.7371C14.6625 38.027 14.5118 39.1302 14.7974 40.0661C15.083 41.0086 15.7925 41.7658 16.7168 42.374C19.7472 44.372 25.05 44.7966 27.4683 43.9623C28.8949 43.4706 30.2791 42.8575 31.6256 42.1445Z"
        fill="#011625" />
    <circle cx="185.335" cy="103.333" r="4" fill="#417BA4" />
    <path fill-rule="evenodd" clip-rule="evenodd"
        d="M34.2562 130.929C34.97 130.662 35.7212 130.306 36.3005 129.791C36.9885 129.179 37.2683 128.391 37.4562 127.562C37.6974 126.496 37.7938 125.361 38.0863 124.294C38.1946 123.897 38.4031 123.747 38.4925 123.681C38.7185 123.513 38.947 123.468 39.162 123.485C39.4168 123.504 39.7667 123.606 39.9969 124.055C40.0297 124.12 40.0724 124.218 40.1011 124.352C40.122 124.45 40.1355 124.758 40.1577 124.885C40.2131 125.198 40.2594 125.51 40.3029 125.825C40.4478 126.871 40.531 127.759 40.9885 128.72C41.6092 130.025 42.2312 130.824 43.0746 131.177C43.8902 131.519 44.8654 131.455 46.1114 131.187C46.2299 131.156 46.3472 131.13 46.4633 131.109C47.0127 131.008 47.5378 131.388 47.6457 131.964C47.7536 132.539 47.4045 133.1 46.8601 133.227C46.7464 133.253 46.6344 133.278 46.5237 133.301C44.84 133.74 42.8908 135.305 41.7581 136.676C41.409 137.099 40.8978 138.28 40.3764 139.034C39.9916 139.59 39.5591 139.957 39.1961 140.086C38.9528 140.174 38.7477 140.16 38.5782 140.116C38.3321 140.052 38.1278 139.912 37.9711 139.689C37.8857 139.567 37.8065 139.403 37.7688 139.194C37.7507 139.093 37.7487 138.838 37.7491 138.722C37.6428 138.337 37.5128 137.962 37.418 137.574C37.192 136.647 36.7485 136.061 36.2217 135.287C35.729 134.562 35.1998 134.106 34.424 133.743C34.3231 133.717 33.5087 133.507 33.2211 133.386C32.801 133.21 32.6008 132.914 32.5282 132.755C32.4047 132.484 32.392 132.248 32.4166 132.051C32.4531 131.761 32.577 131.512 32.7969 131.311C32.9331 131.187 33.1366 131.065 33.409 131.006C33.6195 130.96 34.1778 130.933 34.2562 130.929ZM39.0336 129.42C39.0713 129.508 39.1116 129.597 39.1542 129.687C40.0633 131.598 41.08 132.665 42.3157 133.183L42.3571 133.199C41.5304 133.845 40.7821 134.567 40.2102 135.259C39.9747 135.544 39.6629 136.136 39.3261 136.743C39.0201 135.696 38.5196 134.956 37.8902 134.03C37.4094 133.323 36.9056 132.791 36.2865 132.358C36.7669 132.099 37.2252 131.795 37.6244 131.44C38.289 130.849 38.7284 130.164 39.0336 129.42Z"
        fill="#417BA4" />
    <defs>
        <filter id="filter0_d_375_1139" x="24.6689" y="18.0374" width="143.024" height="163.353"
            filterUnits="userSpaceOnUse" color-interpolation-filters="sRGB">
            <feFlood flood-opacity="0" result="BackgroundImageFix" />
            <feColorMatrix in="SourceAlpha" type="matrix"
                values="0 0 0 0 0 0 0 0 0 0 0 0 0 0 0 0 0 0 127 0" result="hardAlpha" />
            <feOffset dy="20" />
            <feGaussianBlur stdDeviation="15" />
            <feComposite in2="hardAlpha" operator="out" />
            <feColorMatrix type="matrix"
                values="0 0 0 0 0.570833 0 0 0 0 0.570833 0 0 0 0 0.570833 0 0 0 0.04 0" />
            <feBlend mode="normal" in2="BackgroundImageFix" result="effect1_dropShadow_375_1139" />
            <feBlend mode="normal" in="SourceGraphic" in2="effect1_dropShadow_375_1139"
                result="shape" />
        </filter>
        <filter id="filter1_d_375_1139" x="137" y="2.61597" width="72.8125" height="52.926"
            filterUnits="userSpaceOnUse" color-interpolation-filters="sRGB">
            <feFlood flood-opacity="0" result="BackgroundImageFix" />
            <feColorMatrix in="SourceAlpha" type="matrix"
                values="0 0 0 0 0 0 0 0 0 0 0 0 0 0 0 0 0 0 127 0" result="hardAlpha" />
            <feOffset dx="6" dy="4" />
            <feGaussianBlur stdDeviation="6.5" />
            <feComposite in2="hardAlpha" operator="out" />
            <feColorMatrix type="matrix"
                values="0 0 0 0 0.104618 0 0 0 0 0.465612 0 0 0 0 0.545833 0 0 0 0.09 0" />
            <feBlend mode="normal" in2="BackgroundImageFix" result="effect1_dropShadow_375_1139" />
            <feBlend mode="normal" in="SourceGraphic" in2="effect1_dropShadow_375_1139"
                result="shape" />
        </filter>
        <linearGradient id="paint0_linear_375_1139" x1="94.7183" y1="-26.05" x2="96.3571"
            y2="254.898" gradientUnits="userSpaceOnUse">
            <stop stop-color="#F2F2F2" />
            <stop offset="1" stop-color="#EFEFEF" />
        </linearGradient>
    </defs>
</svg>
