<svg xmlns="http://www.w3.org/2000/svg" xmlns:xlink="http://www.w3.org/1999/xlink" version="1.1" width="256" height="256" viewBox="0 0 256 256" xml:space="preserve">
<desc>Created with Fabric.js 1.7.22</desc>
<defs>
</defs>
<g transform="translate(128 128) scale(0.72 0.72)" style="">
	<g style="stroke: none; stroke-width: 0; stroke-dasharray: none; stroke-linecap: butt; stroke-linejoin: miter; stroke-miterlimit: 10; fill: none; fill-rule: nonzero; opacity: 1;" transform="translate(-175.05 -175.05000000000004) scale(3.89 3.89)" >
	<path d="M 45 90 c -12.02 0 -23.32 -4.681 -31.82 -13.181 C 4.681 68.32 0 57.02 0 45 c 0 -12.02 4.681 -23.32 13.18 -31.82 l 0 0 l 0 0 C 21.68 4.681 32.98 0 45 0 c 12.02 0 23.32 4.681 31.819 13.18 C 85.319 21.68 90 32.98 90 45 c 0 12.02 -4.681 23.32 -13.181 31.819 C 68.32 85.319 57.02 90 45 90 z M 45 8 c -9.883 0 -19.174 3.849 -26.163 10.837 l 0 0 C 11.849 25.826 8 35.117 8 45 c 0 9.883 3.849 19.174 10.837 26.163 C 25.826 78.151 35.117 82 45 82 c 9.883 0 19.174 -3.849 26.163 -10.837 C 78.151 64.174 82 54.883 82 45 c 0 -9.883 -3.849 -19.174 -10.837 -26.163 C 64.174 11.849 54.883 8 45 8 z" style="stroke: none; stroke-width: 1; stroke-dasharray: none; stroke-linecap: butt; stroke-linejoin: miter; stroke-miterlimit: 10; fill: rgb(187,64,64); fill-rule: nonzero; opacity: 1;" transform=" matrix(1 0 0 1 0 0) " stroke-linecap="round" />
	<rect x="4" y="41" rx="0" ry="0" width="82" height="8" style="stroke: none; stroke-width: 1; stroke-dasharray: none; stroke-linecap: butt; stroke-linejoin: miter; stroke-miterlimit: 10; fill: rgb(187,64,64); fill-rule: nonzero; opacity: 1;" transform=" matrix(0.707 -0.7072 0.7072 0.707 -18.6396 45.0055) "/>
</g>
</g>
</svg>