<svg width="18" height="18" viewBox="0 0 18 18" fill="none" xmlns="http://www.w3.org/2000/svg">
<g clip-path="url(#clip0_278_1021)">
<path d="M4.33299 0C3.96632 0 3.66634 0.299983 3.66634 0.666654V1.33331H2.71968C1.40302 1.33331 0.333008 2.40332 0.333008 3.71998V15.6133C0.333008 16.93 1.40302 18 2.71968 18H15.2797C16.5963 18 17.6664 16.93 17.6664 15.6133V3.71998C17.6664 2.40332 16.5963 1.33331 15.2797 1.33331H14.333V0.666654C14.333 0.299983 14.033 0 13.6663 0C13.2996 0 12.9997 0.299983 12.9997 0.666654V1.33331H4.9997V0.666654C4.9997 0.299983 4.69966 0 4.33299 0V0ZM12.9997 2.66667V3.33333C12.9997 3.7 13.2996 3.99998 13.6663 3.99998C14.033 3.99998 14.333 3.7 14.333 3.33333V2.66667H15.2796C15.8596 2.66667 16.3329 3.14 16.3329 3.71998V15.6133C16.3329 16.1933 15.8596 16.6666 15.2796 16.6666H2.71968C2.1397 16.6666 1.66637 16.1933 1.66637 15.6133V3.71998C1.66637 3.14 2.1397 2.66667 2.71968 2.66667H3.66634V3.33333C3.66634 3.7 3.96632 3.99998 4.33299 3.99998C4.69966 3.99998 4.99964 3.7 4.99964 3.33333V2.66667H12.9997Z" fill="#EC4C5B"/>
</g>
<path d="M9.84557 9.89954L12.4231 7.32766C12.536 7.21477 12.5994 7.06166 12.5994 6.90201C12.5994 6.74236 12.536 6.58925 12.4231 6.47636C12.3102 6.36347 12.1571 6.30005 11.9975 6.30005C11.8379 6.30005 11.6848 6.36347 11.5719 6.47636L9.00039 9.05423L6.42888 6.47636C6.316 6.36347 6.16291 6.30005 6.00329 6.30005C5.84366 6.30005 5.69057 6.36347 5.5777 6.47636C5.46483 6.58925 5.40141 6.74236 5.40141 6.90201C5.40141 7.06166 5.46483 7.21477 5.5777 7.32766L8.15521 9.89954L5.5777 12.4714C5.52152 12.5271 5.47692 12.5935 5.44649 12.6665C5.41606 12.7396 5.40039 12.8179 5.40039 12.8971C5.40039 12.9762 5.41606 13.0546 5.44649 13.1276C5.47692 13.2007 5.52152 13.267 5.5777 13.3227C5.63342 13.3789 5.69972 13.4235 5.77276 13.4539C5.84581 13.4844 5.92416 13.5 6.00329 13.5C6.08242 13.5 6.16077 13.4844 6.23381 13.4539C6.30686 13.4235 6.37315 13.3789 6.42888 13.3227L9.00039 10.7448L11.5719 13.3227C11.6276 13.3789 11.6939 13.4235 11.767 13.4539C11.84 13.4844 11.9184 13.5 11.9975 13.5C12.0766 13.5 12.155 13.4844 12.228 13.4539C12.3011 13.4235 12.3674 13.3789 12.4231 13.3227C12.4793 13.267 12.5239 13.2007 12.5543 13.1276C12.5847 13.0546 12.6004 12.9762 12.6004 12.8971C12.6004 12.8179 12.5847 12.7396 12.5543 12.6665C12.5239 12.5935 12.4793 12.5271 12.4231 12.4714L9.84557 9.89954Z" fill="#EC4C5B"/>
<defs>
<clipPath id="clip0_278_1021">
<rect width="18" height="18" fill="white"/>
</clipPath>
</defs>
</svg>
