<svg width="20" height="20" viewBox="0 0 20 20" fill="none" xmlns="http://www.w3.org/2000/svg">
<g clip-path="url(#clip0_280_229)">
<path d="M4.81454 0C4.40713 0 4.07381 0.333315 4.07381 0.740727V1.48145H3.02198C1.55902 1.48145 0.370117 2.67035 0.370117 4.13331V17.3481C0.370117 18.8111 1.55902 20 3.02198 20H16.9775C18.4405 20 19.6294 18.8111 19.6294 17.3481V4.13331C19.6294 2.67035 18.4405 1.48145 16.9775 1.48145H15.9257V0.740727C15.9257 0.333315 15.5923 0 15.1849 0C14.7775 0 14.4442 0.333315 14.4442 0.740727V1.48145H5.55533V0.740727C5.55533 0.333315 5.22195 0 4.81454 0V0ZM14.4442 2.96297V3.7037C14.4442 4.11111 14.7775 4.44442 15.1849 4.44442C15.5923 4.44442 15.9256 4.11111 15.9256 3.7037V2.96297H16.9775C17.6219 2.96297 18.1478 3.48889 18.1478 4.13331V17.3481C18.1478 17.9926 17.6219 18.5185 16.9775 18.5185H3.02198C2.37755 18.5185 1.85163 17.9926 1.85163 17.3481V4.13331C1.85163 3.48889 2.37755 2.96297 3.02198 2.96297H4.07381V3.7037C4.07381 4.11111 4.40713 4.44442 4.81454 4.44442C5.22195 4.44442 5.55527 4.11111 5.55527 3.7037V2.96297H14.4442Z" fill="white"/>
<path d="M7.03663 11.8519H9.25887V14.0741C9.25887 14.4815 9.59218 14.8149 9.9996 14.8149C10.407 14.8149 10.7403 14.4815 10.7403 14.0741V11.8519H12.9626C13.37 11.8519 13.7033 11.5186 13.7033 11.1112C13.7033 10.7038 13.37 10.3704 12.9626 10.3704H10.7403V8.1482C10.7403 7.74079 10.407 7.40747 9.9996 7.40747C9.59218 7.40747 9.25887 7.74079 9.25887 8.1482V10.3704H7.03663C6.62921 10.3704 6.2959 10.7038 6.2959 11.1112C6.2959 11.5186 6.62921 11.8519 7.03663 11.8519Z" fill="white"/>
</g>
<defs>
<clipPath id="clip0_280_229">
<rect width="20" height="20" fill="white"/>
</clipPath>
</defs>
</svg>
