<svg width="19" height="18" viewBox="0 0 19 18" fill="none" xmlns="http://www.w3.org/2000/svg">
    <path
        d="M14.3161 12.4395V12.4706L14.3381 12.4925L14.8683 13.0228C15.1323 13.2867 15.1323 13.7133 14.8683 13.9772C14.7367 14.1089 14.564 14.175 14.3911 14.175C14.2182 14.175 14.0455 14.1089 13.9139 13.9772L13.1639 13.2272C13.037 13.1003 12.9661 12.9289 12.9661 12.75V11.25C12.9661 10.8774 13.2678 10.575 13.6411 10.575C14.0144 10.575 14.3161 10.8774 14.3161 11.25V12.4395ZM2.31611 6V6.075H2.39111H9.14111C9.51369 6.075 9.81611 6.37742 9.81611 6.75C9.81611 7.12258 9.51369 7.425 9.14111 7.425H2.39111H2.31611V7.5V14.25C2.31611 15.5319 3.35919 16.575 4.64111 16.575H7.64111C8.01369 16.575 8.31611 16.8774 8.31611 17.25C8.31611 17.6226 8.01369 17.925 7.64111 17.925H4.64111C2.61478 17.925 0.966113 16.2763 0.966113 14.25V5.25C0.966113 3.22367 2.61478 1.575 4.64111 1.575H5.39111H5.46611V1.5V0.75C5.46611 0.377421 5.76853 0.075 6.14111 0.075C6.51369 0.075 6.81611 0.377421 6.81611 0.75V1.5V1.575H6.89111H12.8911H12.9661V1.5V0.75C12.9661 0.377373 13.2678 0.075 13.6411 0.075C14.0144 0.075 14.3161 0.377373 14.3161 0.75V1.5V1.575H14.3911H15.1411C17.1674 1.575 18.8161 3.22367 18.8161 5.25V6.75C18.8161 7.12263 18.5144 7.425 18.1411 7.425C17.7678 7.425 17.4661 7.12263 17.4661 6.75V5.25C17.4661 3.96808 16.423 2.925 15.1411 2.925H4.64111C3.35919 2.925 2.31611 3.96808 2.31611 5.25V6ZM8.46611 12.7792C8.46611 9.92568 10.7883 7.60425 13.6411 7.60425C16.4943 7.60425 18.8161 9.91332 18.8161 12.75C18.8161 15.6036 16.4939 17.925 13.6411 17.925C10.7879 17.925 8.46611 15.6159 8.46611 12.7792ZM9.81611 12.7792C9.81611 14.8725 11.5325 16.575 13.6411 16.575C15.7503 16.575 17.4661 14.8592 17.4661 12.75C17.4661 10.6568 15.7497 8.95425 13.6411 8.95425C11.5319 8.95425 9.81611 10.6701 9.81611 12.7792Z"
        fill="black" stroke="white" stroke-width="0.15" />
</svg>
