<svg width="10" height="10" viewBox="0 0 10 10" fill="none" xmlns="http://www.w3.org/2000/svg">
    <path
        d="M9.705 4.79L5.205 0.29C5.025 0.11 4.775 0 4.5 0H1C0.45 0 0 0.45 0 1V4.5C0 4.775 0.11 5.025 0.295 5.21L4.795 9.71C4.975 9.89 5.225 10 5.5 10C5.775 10 6.025 9.89 6.205 9.705L9.705 6.205C9.89 6.025 10 5.775 10 5.5C10 5.225 9.885 4.97 9.705 4.79ZM5.5 9.005L1 4.5V1H4.5V0.995L9 5.495L5.5 9.005Z"
        fill="#FFA800" />
    <path
        d="M2.9165 4.16675C3.60686 4.16675 4.1665 3.6071 4.1665 2.91675C4.1665 2.22639 3.60686 1.66675 2.9165 1.66675C2.22615 1.66675 1.6665 2.22639 1.6665 2.91675C1.6665 3.6071 2.22615 4.16675 2.9165 4.16675Z"
        fill="#FFA800" />
</svg>
