<svg width="16" height="16" viewBox="0 0 16 16" fill="none" xmlns="http://www.w3.org/2000/svg">
<path d="M8.00001 14.6334H11.3333V13.3H8.00001C5.10668 13.3 2.66668 10.86 2.66668 7.96671C2.66668 5.07338 5.10668 2.63338 8.00001 2.63338C10.8933 2.63338 13.3333 5.07338 13.3333 7.96671V8.92005C13.3333 9.44672 12.86 9.96671 12.3333 9.96671C11.8067 9.96671 11.3333 9.44672 11.3333 8.92005V7.96671C11.3333 6.12672 9.84001 4.63338 8.00001 4.63338C6.16001 4.63338 4.66668 6.12672 4.66668 7.96671C4.66668 9.80672 6.16001 11.3 8.00001 11.3C8.92001 11.3 9.76001 10.9267 10.36 10.32C10.7933 10.9134 11.54 11.3 12.3333 11.3C13.6467 11.3 14.6667 10.2334 14.6667 8.92005V7.96671C14.6667 4.28672 11.68 1.30005 8.00001 1.30005C4.32001 1.30005 1.33334 4.28672 1.33334 7.96671C1.33334 11.6467 4.32001 14.6334 8.00001 14.6334ZM8.00001 9.96671C6.89334 9.96671 6.00001 9.07338 6.00001 7.96671C6.00001 6.86005 6.89334 5.96672 8.00001 5.96672C9.10668 5.96672 10 6.86005 10 7.96671C10 9.07338 9.10668 9.96671 8.00001 9.96671Z" fill="#6E6E6E"/>
</svg>
