<svg width="24" height="24" viewBox="0 0 24 24" fill="none" xmlns="http://www.w3.org/2000/svg">
<g clip-path="url(#clip0_380_1408)">
<path d="M23.9265 12.0966C23.9265 18.189 19.3941 23.2086 13.5333 23.9664V14.6859H16.3468H16.4115L16.4197 14.6217L16.8528 11.2551L16.8634 11.1722H16.7798H13.5333V9.09715C13.5333 8.61298 13.6009 8.22646 13.8242 7.95979C14.0451 7.69607 14.4336 7.53239 15.1194 7.53239H15.1195L16.8944 7.53153L16.9679 7.53149V7.45799V4.44734V4.38288L16.904 4.37444C16.5946 4.33357 15.5381 4.2417 14.3096 4.2417C13.0151 4.2417 11.9172 4.63896 11.1427 5.40788C10.3681 6.17698 9.92517 7.30984 9.92517 8.76509V11.1739H7.10393H7.0304V11.2475V14.6141V14.6876H7.10393H9.92517V23.882C4.32984 22.8956 0.0735341 18.0024 0.0735341 12.1C0.0735341 5.48527 5.41358 0.123339 12.0001 0.123339C18.5864 0.123339 23.9265 5.48528 23.9265 12.0966Z" fill="#6B9CFF" stroke="#6B9CFF" stroke-width="0.147068"/>
</g>
<defs>
<clipPath id="clip0_380_1408">
<rect width="24" height="24" fill="white"/>
</clipPath>
</defs>
</svg>
