<svg width="19" height="20" viewBox="0 0 19 20" fill="none" xmlns="http://www.w3.org/2000/svg">
    <path
        d="M6.93663 15.144C6.93663 14.4416 7.50692 13.8721 8.21042 13.8721H10.7821C11.1199 13.8721 11.4439 14.0061 11.6828 14.2446C11.9216 14.4832 12.0559 14.8067 12.0559 15.144V17.896C12.0537 18.1881 12.1684 18.4689 12.3745 18.6762C12.5805 18.8834 12.8609 19 13.1534 19H14.9079C15.7273 19.0021 16.5139 18.6785 17.094 18.1007C17.6742 17.5229 18.0002 16.7383 18.0002 15.92V8.08017C18.0002 7.41921 17.7068 6.79225 17.1991 6.3682L11.2307 1.60828C10.1925 0.773706 8.70492 0.800652 7.6977 1.67228L1.86547 6.3682C1.33375 6.77975 1.01595 7.40857 1.00024 8.08017V15.912C1.00024 17.6175 2.38474 19 4.09261 19H5.80703C6.4145 19 6.90819 18.5106 6.91259 17.904L6.93663 17.896V15.144Z"
        stroke="black" stroke-width="1.5"  />
</svg>
