<svg width="24" height="24" viewBox="0 0 24 24" fill="none" xmlns="http://www.w3.org/2000/svg">
<path d="M18.617 11.3333V19.95H4.05033V5.38333H12.8137H12.8344L12.849 5.36869L14.1823 4.03536L14.2677 3.95H14.147H4.00033C3.63344 3.95 3.28159 4.09574 3.02216 4.35517C2.76274 4.61459 2.61699 4.96645 2.61699 5.33333V20C2.61699 20.3669 2.76274 20.7187 3.02216 20.9782C3.28159 21.2376 3.63344 21.3833 4.00033 21.3833H18.667C19.0339 21.3833 19.3857 21.2376 19.6452 20.9782C19.9046 20.7187 20.0503 20.3669 20.0503 20V10V9.87929L19.965 9.96464L18.6316 11.298L18.617 11.3126V11.3333Z" fill="white" stroke="white" stroke-width="0.1"/>
<path d="M18.5515 1.61146L18.5516 1.6114C18.6559 1.50677 18.7799 1.42375 18.9164 1.3671C19.0529 1.31046 19.1992 1.2813 19.347 1.2813C19.4947 1.2813 19.6411 1.31046 19.7776 1.3671C19.914 1.42375 20.038 1.50677 20.1424 1.6114L22.3889 3.85797L18.5515 1.61146ZM18.5515 1.61146L9.41151 10.8048L9.40145 10.8149M18.5515 1.61146L9.40145 10.8149M9.40145 10.8149L9.39824 10.8288M9.40145 10.8149L9.39824 10.8288M9.39824 10.8288L8.65824 14.0355L8.65823 14.0355M9.39824 10.8288L8.65823 14.0355M8.65823 14.0355L8.65796 14.0368M8.65823 14.0355L8.65796 14.0368M8.65796 14.0368C8.62497 14.1995 8.62844 14.3674 8.66812 14.5286C8.7078 14.6898 8.78271 14.8402 8.88746 14.9689C8.99221 15.0977 9.12419 15.2017 9.27392 15.2733C9.42286 15.3446 9.58567 15.3822 9.75076 15.3834C9.83552 15.3925 9.92102 15.3924 10.0058 15.3831L10.0058 15.3834M8.65796 14.0368L10.0058 15.3834M10.0058 15.3834L10.0111 15.3822M10.0058 15.3834L10.0111 15.3822M10.0111 15.3822L13.2444 14.6689L13.2588 14.6657M10.0111 15.3822L13.2588 14.6657M13.2588 14.6657L13.2692 14.6552M13.2588 14.6657L13.2692 14.6552M13.2692 14.6552L22.3889 5.44878M13.2692 14.6552L22.3889 5.44878M22.3889 5.44878C22.389 5.44874 22.389 5.44869 22.3891 5.44865M22.3889 5.44878L22.3891 5.44865M22.3891 5.44865C22.4936 5.34433 22.5766 5.2204 22.6332 5.08397C22.6899 4.94748 22.719 4.80115 22.719 4.65338C22.719 4.5056 22.6899 4.35928 22.6332 4.22279C22.5766 4.08632 22.4936 3.96236 22.389 3.85802L22.3891 5.44865ZM19.3564 6.46015L12.5152 13.3411L10.1671 13.8607L10.7124 11.5319L17.5471 4.65087L19.3564 6.46015ZM20.1804 5.63611L18.3707 3.82637L19.334 2.84443L21.1561 4.6666L20.1804 5.63611Z" fill="white" stroke="white" stroke-width="0.1"/>
</svg>
