<svg width="24" height="24" viewBox="0 0 24 24" fill="none" xmlns="http://www.w3.org/2000/svg">
<g clip-path="url(#clip0_380_1413)">
<path d="M1.49999 1.63305C-0.386014 3.59205 -1.43647e-05 5.67305 -1.43647e-05 11.995C-1.43647e-05 17.245 -0.916014 22.508 3.87799 23.747C5.37499 24.132 18.639 24.132 20.134 23.745C22.13 23.23 23.754 21.611 23.976 18.788C24.007 18.394 24.007 5.60305 23.975 5.20105C23.739 2.19405 21.888 0.461046 19.449 0.110046C18.89 0.0290464 18.778 0.00504639 15.91 4.63948e-05C5.73699 0.00504639 3.50699 -0.447954 1.49999 1.63305Z" fill="url(#paint0_linear_380_1413)"/>
<path d="M11.998 3.13892C8.367 3.13892 4.919 2.81592 3.602 6.19592C3.058 7.59192 3.137 9.40492 3.137 12.0009C3.137 14.2789 3.064 16.4199 3.602 17.8049C4.916 21.1869 8.392 20.8629 11.996 20.8629C15.473 20.8629 19.058 21.2249 20.391 17.8049C20.936 16.3949 20.856 14.6089 20.856 12.0009C20.856 8.53892 21.047 6.30392 19.368 4.62592C17.668 2.92592 15.369 3.13892 11.994 3.13892H11.998ZM11.204 4.73592C18.778 4.72392 19.742 3.88192 19.21 15.5789C19.021 19.7159 15.871 19.2619 11.999 19.2619C4.939 19.2619 4.736 19.0599 4.736 11.9969C4.736 4.85192 5.296 4.73992 11.204 4.73392V4.73592ZM16.728 6.20692C16.141 6.20692 15.665 6.68292 15.665 7.26992C15.665 7.85692 16.141 8.33292 16.728 8.33292C17.315 8.33292 17.791 7.85692 17.791 7.26992C17.791 6.68292 17.315 6.20692 16.728 6.20692ZM11.998 7.44992C9.485 7.44992 7.448 9.48792 7.448 12.0009C7.448 14.5139 9.485 16.5509 11.998 16.5509C14.511 16.5509 16.547 14.5139 16.547 12.0009C16.547 9.48792 14.511 7.44992 11.998 7.44992ZM11.998 9.04692C15.903 9.04692 15.908 14.9549 11.998 14.9549C8.094 14.9549 8.088 9.04692 11.998 9.04692Z" fill="white"/>
</g>
<defs>
<linearGradient id="paint0_linear_380_1413" x1="1.54601" y1="22.4671" x2="23.8515" y2="3.16202" gradientUnits="userSpaceOnUse">
<stop stop-color="#FFDD55"/>
<stop offset="0.5" stop-color="#FF543E"/>
<stop offset="1" stop-color="#C837AB"/>
</linearGradient>
<clipPath id="clip0_380_1413">
<rect width="24" height="24" fill="white"/>
</clipPath>
</defs>
</svg>
