<svg width="14" height="14" viewBox="0 0 14 14" fill="none" xmlns="http://www.w3.org/2000/svg">
    <mask id="mask0_278_981" style="mask-type:alpha" maskUnits="userSpaceOnUse" x="0" y="0"
        width="14" height="14">
        <rect width="14" height="14" fill="white" />
    </mask>
    <g mask="url(#mask0_278_981)">
        <path
            d="M11.7254 6.19106C11.7254 3.53283 9.62539 1.40625 7.00039 1.40625C4.37539 1.40625 2.27539 3.53283 2.27539 6.19106C2.27539 7.16574 2.53789 8.05182 3.06289 8.76068C3.15039 8.93789 7.00039 13.1135 7.00039 13.1135C7.00039 13.1135 10.8504 8.93789 10.9379 8.76068C11.3754 8.05182 11.7254 7.16574 11.7254 6.19106Z"
            stroke="#6E6E6E" />
        <path fill-rule="evenodd" clip-rule="evenodd"
            d="M7.0002 7.60885C6.17867 7.60885 5.5127 6.93444 5.5127 6.10252C5.5127 5.2706 6.17867 4.59619 7.0002 4.59619C7.82172 4.59619 8.4877 5.2706 8.4877 6.10252C8.4877 6.93444 7.82172 7.60885 7.0002 7.60885Z"
            stroke="#6E6E6E" />
    </g>
</svg>
