<svg width="38" height="43" viewBox="0 0 38 43" fill="none" xmlns="http://www.w3.org/2000/svg">
<path d="M37.2819 17.7686C36.977 7.70077 28.413 -0.296445 18.4798 0.00843617C8.41335 0.311911 0.446791 8.74451 0.718671 18.8109C0.979583 27.217 6.98242 34.4008 15.1 36.1587L17.7436 41.515C17.9826 41.9901 18.4687 42.2896 19.0002 42.2896H19.0016C19.5345 42.2896 20.0206 41.9874 20.2581 41.5123L22.9018 36.1285C31.3779 34.2773 37.5138 26.5125 37.2818 17.7741C37.2819 17.7727 37.2819 17.77 37.2819 17.7686ZM29.0035 23.6286C29.0694 25.9549 27.2306 27.9009 24.9055 27.9668C24.863 27.9668 24.8217 27.9682 24.7791 27.9682C23.7011 27.9682 22.678 27.5617 21.8897 26.8174C21.0698 26.0443 20.6002 24.9978 20.5672 23.8716C20.5441 23.0566 20.7655 22.2946 21.1492 21.6373L19.025 19.1335L17.0513 21.7526C17.4708 22.3871 17.7335 23.1359 17.7575 23.9512C17.8248 26.2763 15.9873 28.2236 13.6622 28.2923C13.6211 28.2923 13.5812 28.2937 13.5414 28.2937C11.2672 28.2937 9.38706 26.4795 9.32256 24.1943C9.28956 23.0696 9.69888 21.9984 10.472 21.1785C11.2452 20.3587 12.2917 19.889 13.4178 19.8561C13.9038 19.8427 14.3643 19.928 14.8012 20.065L17.1599 16.9351L12.0624 10.9267C11.5598 10.3348 11.6325 9.44765 12.2258 8.94495C12.8176 8.44235 13.7048 8.51651 14.2075 9.10836L18.8948 14.6333L23.2563 8.84605C23.7246 8.22532 24.6077 8.10034 25.2257 8.56863C25.8464 9.03692 25.97 9.91857 25.5031 10.538L20.76 16.8315L23.2965 19.8214C23.725 19.6582 24.1794 19.546 24.6627 19.5318C27.0001 19.5607 28.9351 21.3006 29.0038 23.6271L29.0035 23.6286Z" fill="#0BA0D0"/>
</svg>
