<svg width="16" height="16" viewBox="0 0 16 16" fill="none" xmlns="http://www.w3.org/2000/svg">
<mask id="mask0_380_1358" style="mask-type:alpha" maskUnits="userSpaceOnUse" x="0" y="0" width="16" height="16">
<rect width="16" height="16" fill="white"/>
</mask>
<g mask="url(#mask0_380_1358)">
<path d="M13.4001 7.07529C13.4001 4.03731 11.0001 1.60693 8.0001 1.60693C5.0001 1.60693 2.6001 4.03731 2.6001 7.07529C2.6001 8.18921 2.9001 9.20187 3.5001 10.012C3.6001 10.2145 8.0001 14.9867 8.0001 14.9867C8.0001 14.9867 12.4001 10.2145 12.5001 10.012C13.0001 9.20187 13.4001 8.18921 13.4001 7.07529Z" stroke="#6E6E6E"/>
<path fill-rule="evenodd" clip-rule="evenodd" d="M7.9998 8.69597C7.06092 8.69597 6.2998 7.92522 6.2998 6.97445C6.2998 6.02368 7.06092 5.25293 7.9998 5.25293C8.93869 5.25293 9.69981 6.02368 9.69981 6.97445C9.69981 7.92522 8.93869 8.69597 7.9998 8.69597Z" stroke="#6E6E6E"/>
</g>
</svg>
