<svg width="18" height="18" viewBox="0 0 18 18" fill="none" xmlns="http://www.w3.org/2000/svg">
    <path
        d="M9.00394 18.0027C5.58041 18.003 2.42348 16.0413 0.911494 12.9536C-0.618498 9.82818 -0.155241 5.93032 2.06479 3.2543C4.28239 0.581059 7.88769 -0.585391 11.2489 0.282609C11.619 0.378168 11.8416 0.755906 11.7464 1.12637C11.6509 1.49684 11.2728 1.71912 10.9027 1.6239C8.05942 0.88955 5.00775 1.87631 3.13083 4.13892C1.25288 6.40292 0.860945 9.70077 2.1555 12.3453C3.44521 14.9794 6.29018 16.6953 9.21029 16.6157C12.1301 16.536 14.7798 14.7602 15.9607 12.0918C16.6542 10.5248 16.801 8.75037 16.3735 7.09504C16.2779 6.72492 16.5005 6.34718 16.871 6.25127C17.2404 6.15537 17.6188 6.37834 17.7147 6.74881C18.2196 8.70466 18.0468 10.8014 17.2276 12.6524C15.8316 15.8065 12.6993 17.9057 9.24838 17.9999C9.16667 18.0016 9.08496 18.0027 9.00394 18.0027Z"
        fill="black" />
    <path
        d="M8.99853 11.1602C8.82126 11.1602 8.64399 11.0927 8.50896 10.9573C8.23855 10.6869 8.23855 10.2486 8.50896 9.97815L16.8185 1.66862C17.0885 1.39822 17.5276 1.39822 17.7976 1.66862C18.068 1.93903 18.068 2.37736 17.7976 2.64776L9.4881 10.9573C9.35307 11.0923 9.1758 11.1602 8.99853 11.1602Z"
        fill="black" />
    <path
        d="M8.99879 11.1602C8.82152 11.1602 8.64425 11.0927 8.50922 10.9574L5.57146 8.01959C5.30105 7.74918 5.30105 7.31086 5.57146 7.04045C5.84152 6.77004 6.28054 6.77004 6.5506 7.04045L9.48836 9.97822C9.75877 10.2486 9.75877 10.6869 9.48836 10.9574C9.35333 11.0924 9.17606 11.1602 8.99879 11.1602Z"
        fill="black" />
</svg>
