<svg width="14" height="14" viewBox="0 0 14 14" fill="none" xmlns="http://www.w3.org/2000/svg">
<path d="M12.9267 5.86898C13.0111 5.30214 12.9828 4.72419 12.8433 4.16832C12.653 3.40871 12.2595 2.71524 11.705 2.16232C11.1521 1.60769 10.4586 1.21406 9.69899 1.02365C9.14308 0.88438 8.56515 0.856174 7.99832 0.940649M10.3967 5.60098C10.4432 5.29159 10.4164 4.97559 10.3185 4.67845C10.2205 4.38131 10.0541 4.11134 9.83266 3.89032C9.6116 3.66893 9.34162 3.50258 9.04448 3.40467C8.74734 3.30676 8.43135 3.28004 8.12199 3.32665" stroke="#6E6E6E" stroke-width="1.2" stroke-linecap="round" stroke-linejoin="round"/>
<path d="M3.79199 1.9314C3.91091 1.93146 4.02764 1.96332 4.13009 2.02369C4.23254 2.08406 4.31698 2.17074 4.37466 2.27473L5.19032 3.7434C5.24295 3.83818 5.27167 3.94436 5.274 4.05275C5.27632 4.16113 5.25218 4.26845 5.20366 4.3654L4.41799 5.9364C4.41799 5.9364 4.64566 7.10706 5.59832 8.05973C6.55132 9.0124 7.71799 9.2364 7.71799 9.2364L9.28866 8.45073C9.38568 8.4022 9.49307 8.37809 9.60152 8.38047C9.70997 8.38285 9.8162 8.41166 9.91099 8.4644L11.3843 9.2834C11.4881 9.3412 11.5746 9.42569 11.6348 9.52814C11.695 9.63058 11.7267 9.74725 11.7267 9.86606V11.5574C11.7267 12.4184 10.9267 13.0407 10.1107 12.7651C8.43466 12.1997 5.83332 11.1227 4.18399 9.47406C2.53532 7.82506 1.45866 5.2234 0.89299 3.5474C0.617657 2.7314 1.23966 1.9314 2.10099 1.9314H3.79199V1.9314Z" stroke="#6E6E6E" stroke-width="1.2" stroke-linejoin="round"/>
</svg>
