<svg width="16" height="18" viewBox="0 0 16 18" fill="none" xmlns="http://www.w3.org/2000/svg">
    <path
        d="M6.57272 0C6.24061 0.00120112 5.97336 0.270853 5.97457 0.602963C5.97457 1.6107 5.62444 2.20166 5.17222 2.95716C4.92478 3.37035 4.52841 4.05439 4.35906 4.57927C4.18129 4.22134 4.0792 3.95649 3.92125 3.38296C3.79333 2.90671 3.17655 2.77939 2.87027 3.16616C0.616964 5.97257 -0.0448519 8.07694 0.00259237 10.2053C0.0974809 14.4927 3.50506 18 7.80988 18C12.1147 18 15.616 14.4975 15.616 10.1927C15.616 9.08708 15.3601 7.65114 14.831 6.30108C14.3019 4.95102 13.5044 3.66883 12.2823 3.01542C11.9375 2.83224 11.5117 3.02202 11.418 3.40157C11.3003 3.88382 11.2571 4.03216 11.1166 4.44054C10.9442 3.65861 10.6679 2.90912 10.2169 2.18604C9.46082 0.971708 8.21406 0 6.57272 0ZM7.13245 1.25757C8.00266 1.42993 8.66808 1.97044 9.19777 2.82023C9.80554 3.79554 10.1148 5.09576 10.1148 6.13593C10.116 6.644 10.7076 6.92146 11.0991 6.59716C11.7273 6.07827 12.1267 5.25551 12.3435 4.54084C12.9086 5.05672 13.3344 5.7798 13.7098 6.73889C14.1788 7.93701 14.4148 9.28046 14.4148 10.1921C14.4148 13.8477 11.4655 16.7983 7.80988 16.7983C4.15427 16.7983 1.27998 13.8501 1.19891 10.1795C1.16227 8.52256 1.57005 6.97551 3.13692 4.80268C3.40116 5.39964 3.76751 5.97858 4.23114 6.44221C4.59328 6.80555 5.21606 6.57614 5.25629 6.06446C5.34217 4.98465 5.74575 4.33905 6.20398 3.57334C6.53789 3.01542 6.9811 2.28994 7.13245 1.25757ZM5.8022 7.94001C5.30494 7.94001 4.90136 8.34359 4.90136 8.84085C4.90136 9.33812 5.30494 9.74169 5.8022 9.74169C6.29947 9.74169 6.70304 9.33812 6.70304 8.84085C6.70304 8.34359 6.29947 7.94001 5.8022 7.94001ZM10.0638 7.94602C9.90583 7.96343 9.75509 8.0385 9.66261 8.1442L5.0527 13.3979C4.8311 13.6465 4.85512 14.0285 5.10555 14.2483C5.35539 14.4657 5.73434 14.4405 5.95234 14.1906L10.5671 8.93694C10.7839 8.68711 10.758 8.30936 10.5094 8.09135C10.3863 7.96824 10.2211 7.928 10.0638 7.94602ZM9.81395 12.5944C9.31668 12.5944 8.91311 12.9979 8.91311 13.4952C8.91311 13.9925 9.31668 14.396 9.81395 14.396C10.3112 14.396 10.7148 13.9925 10.7148 13.4952C10.7148 12.9979 10.3112 12.5944 9.81395 12.5944Z"
        fill="black" />
</svg>
