<svg width="31" height="29" viewBox="0 0 31 29" fill="none" xmlns="http://www.w3.org/2000/svg">
<path d="M29.2222 12.9156C29.5526 12.6695 29.7977 12.3261 29.9231 11.9337C30.0484 11.5413 30.0479 11.1195 29.9214 10.7274C29.795 10.3353 29.549 9.99266 29.218 9.74744C28.887 9.50222 28.4875 9.36675 28.0756 9.36002L20.0756 9.0578C20.0362 9.05508 19.9985 9.04105 19.967 9.0174C19.9354 8.99374 19.9114 8.96147 19.8978 8.92447L17.1334 1.4578C16.9945 1.07792 16.7422 0.749904 16.4107 0.518152C16.0792 0.2864 15.6845 0.162109 15.28 0.162109C14.8755 0.162109 14.4808 0.2864 14.1493 0.518152C13.8179 0.749904 13.5656 1.07792 13.4267 1.4578L10.6711 8.95113C10.6575 8.98813 10.6335 9.02041 10.6019 9.04406C10.5704 9.06772 10.5327 9.08175 10.4934 9.08447L2.49335 9.38669C2.08145 9.39342 1.68198 9.52889 1.35095 9.77411C1.01992 10.0193 0.773941 10.362 0.647497 10.7541C0.521052 11.1462 0.520485 11.568 0.645874 11.9604C0.771264 12.3528 1.01632 12.6961 1.34669 12.9422L7.62224 17.8756C7.65365 17.9003 7.67713 17.9337 7.68976 17.9716C7.7024 18.0095 7.70365 18.0503 7.69335 18.0889L5.53335 25.7422C5.42142 26.132 5.43227 26.5467 5.56441 26.9301C5.69655 27.3134 5.94358 27.6467 6.27189 27.8847C6.60019 28.1227 6.99384 28.2537 7.39927 28.2601C7.8047 28.2664 8.20224 28.1476 8.5378 27.92L15.1689 23.4756C15.2016 23.453 15.2403 23.4409 15.28 23.4409C15.3197 23.4409 15.3585 23.453 15.3911 23.4756L22.0222 27.92C22.3533 28.1554 22.7494 28.2819 23.1556 28.2819C23.5618 28.2819 23.9579 28.1554 24.2889 27.92C24.6173 27.6843 24.8646 27.3526 24.9967 26.9706C25.1288 26.5885 25.1393 26.1749 25.0267 25.7867L22.8489 18.1067C22.8374 18.0681 22.838 18.027 22.8507 17.9888C22.8635 17.9506 22.8877 17.9173 22.92 17.8934L29.2222 12.9156Z" fill="#FFA800"/>
</svg>
