<svg width="20" height="20" viewBox="0 0 20 20" fill="none" xmlns="http://www.w3.org/2000/svg">
<path d="M17.4085 8.58635C17.514 7.87779 17.4786 7.15536 17.3043 6.46052C17.0664 5.51101 16.5745 4.64418 15.8814 3.95302C15.1903 3.25974 14.3234 2.7677 13.3739 2.52968C12.679 2.3556 11.9566 2.32034 11.248 2.42593M14.246 8.25135C14.3042 7.86461 14.2707 7.46961 14.1482 7.09818C14.0258 6.72676 13.8178 6.3893 13.541 6.11302C13.2646 5.83629 12.9272 5.62835 12.5557 5.50596C12.1843 5.38358 11.7893 5.35017 11.4026 5.40843" stroke="#0BA0D0" stroke-width="1.25" stroke-linecap="round" stroke-linejoin="round"/>
<path d="M5.99039 3.66431C6.13903 3.66438 6.28495 3.70422 6.41301 3.77968C6.54108 3.85514 6.64663 3.96348 6.71872 4.09347L7.7383 5.92931C7.80409 6.04778 7.83999 6.18051 7.84289 6.31599C7.8458 6.45148 7.81562 6.58562 7.75497 6.70681L6.77288 8.67056C6.77288 8.67056 7.05747 10.1339 8.2483 11.3247C9.43955 12.5156 10.8979 12.7956 10.8979 12.7956L12.8612 11.8135C12.9825 11.7528 13.1167 11.7227 13.2523 11.7256C13.3879 11.7286 13.5206 11.7646 13.6391 11.8306L15.4808 12.8543C15.6106 12.9266 15.7186 13.0322 15.7939 13.1602C15.8691 13.2883 15.9088 13.4341 15.9087 13.5826V15.6968C15.9087 16.7731 14.9087 17.551 13.8887 17.2064C11.7937 16.4997 8.54205 15.1535 6.48039 13.0926C4.41955 11.0314 3.07372 7.77931 2.36663 5.68431C2.02247 4.66431 2.79997 3.66431 3.87663 3.66431H5.99039V3.66431Z" stroke="#0BA0D0" stroke-width="1.25" stroke-linejoin="round"/>
</svg>
