<svg width="18" height="16" viewBox="0 0 18 16" fill="none" xmlns="http://www.w3.org/2000/svg">
<path d="M0.273785 5.26082L0.340185 5.18722L1.90618 6.59994L1.8392 6.67419L1.90619 6.59994C2.15489 6.82431 2.53612 6.802 2.758 6.55609C2.98111 6.30874 2.9615 5.92739 2.71416 5.70426L2.78114 5.63001L2.71416 5.70426L1.14816 4.29154L1.14816 4.29154C0.900923 4.06849 0.519576 4.08801 0.296341 4.33539L0.273785 5.26082ZM0.273785 5.26082L0.340184 5.18722M0.273785 5.26082L0.340184 5.18722M0.340184 5.18722C0.0928512 4.9641 0.0732377 4.58275 0.296327 4.3354L0.340184 5.18722ZM17.5715 12.724L17.6171 12.813L17.5715 12.724C17.2762 12.8752 16.9127 12.7596 16.7603 12.4628C16.2147 11.3995 15.2202 10.1097 13.8915 9.0849C12.5623 8.05968 10.8931 7.29545 8.99997 7.29545C5.60612 7.29545 2.60345 9.80513 1.23966 12.4628L1.32863 12.5085L1.23976 12.4626C1.08714 12.7585 0.723743 12.8751 0.427844 12.7231C0.131807 12.571 0.0147789 12.2085 0.166329 11.9124C1.70764 8.9027 5.09419 6.0892 8.99997 6.0892C13.455 6.0892 16.6568 9.6144 17.8336 11.9124C17.9854 12.2089 17.868 12.5723 17.5715 12.724ZM16.0937 6.59994L16.1607 6.67419L16.0937 6.59994C15.8453 6.82405 15.464 6.80226 15.2419 6.55609C15.0188 6.30874 15.0384 5.92735 15.2857 5.70427L15.2857 5.70426L16.8517 4.29154C17.099 4.06842 17.4804 4.08808 17.7035 4.33539C17.9266 4.58274 17.907 4.96409 17.6597 5.18722L17.7267 5.26147L17.6597 5.18722L16.0937 6.59994ZM9.60306 3.16791C9.60306 3.50099 9.33304 3.77104 8.99993 3.77104C8.66687 3.77104 8.39684 3.50102 8.39681 3.16791V1.05664C8.39681 0.723565 8.66683 0.453516 8.99993 0.453516C9.33304 0.453516 9.60306 0.723565 9.60306 1.05664V3.16791ZM12.354 12.1871C12.354 14.0395 10.8491 15.5465 8.99997 15.5465C7.15078 15.5465 5.6459 14.0395 5.6459 12.1871C5.6459 10.3348 7.15078 8.8278 8.99997 8.8278C10.8491 8.8278 12.354 10.3348 12.354 12.1871ZM11.1478 12.1871C11.1478 11.0001 10.1847 10.0341 9 10.0341C7.81535 10.0341 6.85215 11.0001 6.85215 12.1871C6.85215 13.3742 7.81531 14.3402 8.99997 14.3402C10.1846 14.3402 11.1478 13.3742 11.1478 12.1871Z" fill="#6E6E6E" stroke="white" stroke-width="0.2"/>
</svg>
